<mxfile modified="2022-07-20T00:38:42.309Z" host="app.diagrams.net" agent="5.0 (Windows NT 10.0; Win64; x64) AppleWebKit/537.36 (KHTML, like Gecko) Chrome/103.0.5060.114 Safari/537.36 Edg/103.0.1264.62" etag="LQhlpGTpCYcWP960Wt0Z" version="20.1.1" type="github">
  <diagram id="WI9T0HZ2pTsCkuznbFz-" name="Page-1">
    <mxGraphModel dx="2211" dy="1249" grid="1" gridSize="10" guides="1" tooltips="1" connect="1" arrows="1" fold="1" page="1" pageScale="1" pageWidth="1169" pageHeight="827" math="0" shadow="0">
      <root>
        <mxCell id="0" />
        <mxCell id="1" parent="0" />
        <mxCell id="AcxdMaKK0mU5kZiv2lnr-49" style="edgeStyle=elbowEdgeStyle;rounded=0;orthogonalLoop=1;jettySize=auto;elbow=vertical;html=1;strokeColor=#808080;exitX=1.016;exitY=0.498;exitDx=0;exitDy=0;exitPerimeter=0;" parent="1" edge="1">
          <mxGeometry relative="1" as="geometry">
            <mxPoint x="286.29999999999995" y="223.9000000000001" as="sourcePoint" />
            <mxPoint x="340" y="224" as="targetPoint" />
          </mxGeometry>
        </mxCell>
        <mxCell id="nSn1qpeJ9wSEvml6d4GA-2" value="Criação de &#xa;Aplicação " style="shape=image;verticalLabelPosition=bottom;labelBackgroundColor=default;verticalAlign=top;aspect=fixed;imageAspect=0;image=data:image/svg+xml,PHN2ZyB4bWxucz0iaHR0cDovL3d3dy53My5vcmcvMjAwMC9zdmciIGhlaWdodD0iNDhweCIgd2lkdGg9IjQ4cHgiIHZpZXdCb3g9IjAgMCA0OCA0OCI+PHBhdGggZD0iTTQ0LjgyNSwyNi44MzdMMjYuODM3LDQ0LjgyNWMtMS41NjcsMS41NjctNC4xMDgsMS41NjctNS42NzUsMEwzLjE3NSwyNi44MzdjLTEuNTY3LTEuNTY3LTEuNTY3LTQuMTA4LDAtNS42NzVMMjEuMTYzLDMuMTc1YzEuNTY3LTEuNTY3LDQuMTA4LTEuNTY3LDUuNjc1LDBsMTcuOTg3LDE3Ljk4N0M0Ni4zOTIsMjIuNzMsNDYuMzkyLDI1LjI3LDQ0LjgyNSwyNi44Mzd6IiBmaWxsPSIjNTRiM2RiIi8+PHBhdGggZD0iTTExIDI0TDI0IDExIDM3IDI0IiBzdHJva2Utd2lkdGg9IjIiIHN0cm9rZS1taXRlcmxpbWl0PSIxMCIgc3Ryb2tlLWxpbmVqb2luPSJyb3VuZCIgc3Ryb2tlLWxpbmVjYXA9InJvdW5kIiBzdHJva2U9IiNiM2RjZWUiIGZpbGw9Im5vbmUiLz48cGF0aCBkPSJNMzcgMjRMMjQgMzcgMTEgMjQiIHN0cm9rZS13aWR0aD0iMiIgc3Ryb2tlLW1pdGVybGltaXQ9IjEwIiBzdHJva2UtbGluZWpvaW49InJvdW5kIiBzdHJva2UtbGluZWNhcD0icm91bmQiIHN0cm9rZT0iI2ZmZiIgZmlsbD0ibm9uZSIvPjxwYXRoIGQ9Ik0yMiAxM0gyNlYzNUgyMnoiIGZpbGw9IiNmZmYiLz48cGF0aCBkPSJNMjQgN0E0IDQgMCAxIDAgMjQgMTVBNCA0IDAgMSAwIDI0IDdaIiBmaWxsPSIjZmZmIi8+PHBhdGggZD0iTTI0IDlBMiAyIDAgMSAwIDI0IDEzQTIgMiAwIDEgMCAyNCA5WiIgZmlsbD0iI2JmZGEzNSIvPjxwYXRoIGQ9Ik0yNCAzM0E0IDQgMCAxIDAgMjQgNDFBNCA0IDAgMSAwIDI0IDMzWiIgZmlsbD0iI2ZmZiIvPjxwYXRoIGQ9Ik0yNCAzNUEyIDIgMCAxIDAgMjQgMzlBMiAyIDAgMSAwIDI0IDM1WiIgZmlsbD0iI2JmZGEzNSIvPjxwYXRoIGQ9Ik0zNyAyMEE0IDQgMCAxIDAgMzcgMjhBNCA0IDAgMSAwIDM3IDIwWiIgZmlsbD0iI2ZmZiIvPjxwYXRoIGQ9Ik0zNyAyMkEyIDIgMCAxIDAgMzcgMjZBMiAyIDAgMSAwIDM3IDIyWiIgZmlsbD0iI2JmZGEzNSIvPjxwYXRoIGQ9Ik0xMSAyMEE0IDQgMCAxIDAgMTEgMjhBNCA0IDAgMSAwIDExIDIwWiIgZmlsbD0iI2ZmZiIvPjxwYXRoIGQ9Ik0xMSAyMkEyIDIgMCAxIDAgMTEgMjZBMiAyIDAgMSAwIDExIDIyWiIgZmlsbD0iI2JmZGEzNSIvPjwvc3ZnPg==;" vertex="1" parent="1">
          <mxGeometry x="236.5" y="200" width="48" height="48" as="geometry" />
        </mxCell>
        <mxCell id="nSn1qpeJ9wSEvml6d4GA-40" value="" style="edgeStyle=orthogonalEdgeStyle;rounded=0;orthogonalLoop=1;jettySize=auto;html=1;exitX=0.499;exitY=0.985;exitDx=0;exitDy=0;exitPerimeter=0;entryX=0.5;entryY=0;entryDx=0;entryDy=0;" edge="1" parent="1" source="nSn1qpeJ9wSEvml6d4GA-57">
          <mxGeometry relative="1" as="geometry">
            <mxPoint x="841.6600000000001" y="318.0000000000001" as="targetPoint" />
            <Array as="points">
              <mxPoint x="842" y="260" />
              <mxPoint x="842" y="390" />
            </Array>
          </mxGeometry>
        </mxCell>
        <mxCell id="nSn1qpeJ9wSEvml6d4GA-61" value="Sim" style="edgeLabel;html=1;align=center;verticalAlign=middle;resizable=0;points=[];fontSize=8;" vertex="1" connectable="0" parent="nSn1qpeJ9wSEvml6d4GA-40">
          <mxGeometry x="-0.3729" y="2" relative="1" as="geometry">
            <mxPoint x="-2" y="-46" as="offset" />
          </mxGeometry>
        </mxCell>
        <mxCell id="nSn1qpeJ9wSEvml6d4GA-71" value="Sim" style="edgeLabel;html=1;align=center;verticalAlign=middle;resizable=0;points=[];fontSize=8;" vertex="1" connectable="0" parent="nSn1qpeJ9wSEvml6d4GA-40">
          <mxGeometry x="-0.2529" y="1" relative="1" as="geometry">
            <mxPoint as="offset" />
          </mxGeometry>
        </mxCell>
        <mxCell id="nSn1qpeJ9wSEvml6d4GA-60" value="" style="edgeStyle=orthogonalEdgeStyle;rounded=0;orthogonalLoop=1;jettySize=auto;html=1;fontSize=8;" edge="1" parent="1" source="nSn1qpeJ9wSEvml6d4GA-4" target="nSn1qpeJ9wSEvml6d4GA-57">
          <mxGeometry relative="1" as="geometry" />
        </mxCell>
        <mxCell id="nSn1qpeJ9wSEvml6d4GA-4" value="main.py" style="shape=image;verticalLabelPosition=bottom;labelBackgroundColor=default;verticalAlign=top;aspect=fixed;imageAspect=0;image=data:image/svg+xml,PHN2ZyB4bWxucz0iaHR0cDovL3d3dy53My5vcmcvMjAwMC9zdmciIGhlaWdodD0iNDhweCIgd2lkdGg9IjQ4cHgiIHZpZXdCb3g9IjAgMCA0OCA0OCI+PHBhdGggZD0iTTI0LjA0Nyw1Yy0xLjU1NSwwLjAwNS0yLjYzMywwLjE0Mi0zLjkzNiwwLjM2N2MtMy44NDgsMC42Ny00LjU0OSwyLjA3Ny00LjU0OSw0LjY3VjE0aDl2MkgxNS4yMmgtNC4zNWMtMi42MzYsMC00Ljk0MywxLjI0Mi01LjY3NCw0LjIxOWMtMC44MjYsMy40MTctMC44NjMsNS41NTcsMCw5LjEyNUM1Ljg1MSwzMi4wMDUsNy4yOTQsMzQsOS45MzEsMzRoMy42MzJ2LTUuMTA0YzAtMi45NjYsMi42ODYtNS44OTYsNS43NjQtNS44OTZoNy4yMzZjMi41MjMsMCw1LTEuODYyLDUtNC4zNzd2LTguNTg2YzAtMi40MzktMS43NTktNC4yNjMtNC4yMTgtNC42NzJDMjcuNDA2LDUuMzU5LDI1LjU4OSw0Ljk5NCwyNC4wNDcsNXogTTE5LjA2Myw5YzAuODIxLDAsMS41LDAuNjc3LDEuNSwxLjUwMmMwLDAuODMzLTAuNjc5LDEuNDk4LTEuNSwxLjQ5OGMtMC44MzcsMC0xLjUtMC42NjQtMS41LTEuNDk4QzE3LjU2Myw5LjY4LDE4LjIyNiw5LDE5LjA2Myw5eiIgZmlsbD0iIzAyNzdCRCIvPjxwYXRoIGQ9Ik0yMy4wNzgsNDNjMS41NTUtMC4wMDUsMi42MzMtMC4xNDIsMy45MzYtMC4zNjdjMy44NDgtMC42Nyw0LjU0OS0yLjA3Nyw0LjU0OS00LjY3VjM0aC05di0yaDkuMzQzaDQuMzVjMi42MzYsMCw0Ljk0My0xLjI0Miw1LjY3NC00LjIxOWMwLjgyNi0zLjQxNywwLjg2My01LjU1NywwLTkuMTI1QzQxLjI3NCwxNS45OTUsMzkuODMxLDE0LDM3LjE5NCwxNGgtMy42MzJ2NS4xMDRjMCwyLjk2Ni0yLjY4Niw1Ljg5Ni01Ljc2NCw1Ljg5NmgtNy4yMzZjLTIuNTIzLDAtNSwxLjg2Mi01LDQuMzc3djguNTg2YzAsMi40MzksMS43NTksNC4yNjMsNC4yMTgsNC42NzJDMTkuNzE5LDQyLjY0MSwyMS41MzYsNDMuMDA2LDIzLjA3OCw0M3ogTTI4LjA2MywzOWMtMC44MjEsMC0xLjUtMC42NzctMS41LTEuNTAyYzAtMC44MzMsMC42NzktMS40OTgsMS41LTEuNDk4YzAuODM3LDAsMS41LDAuNjY0LDEuNSwxLjQ5OEMyOS41NjMsMzguMzIsMjguODk5LDM5LDI4LjA2MywzOXoiIGZpbGw9IiNGRkMxMDciLz48L3N2Zz4=;" vertex="1" parent="1">
          <mxGeometry x="690" y="200.75" width="48" height="48" as="geometry" />
        </mxCell>
        <mxCell id="nSn1qpeJ9wSEvml6d4GA-66" value="" style="edgeStyle=orthogonalEdgeStyle;rounded=0;orthogonalLoop=1;jettySize=auto;html=1;fontSize=8;" edge="1" parent="1" source="nSn1qpeJ9wSEvml6d4GA-10">
          <mxGeometry relative="1" as="geometry">
            <mxPoint x="710" y="280" as="targetPoint" />
            <Array as="points">
              <mxPoint x="710" y="370" />
              <mxPoint x="710" y="370" />
            </Array>
          </mxGeometry>
        </mxCell>
        <mxCell id="nSn1qpeJ9wSEvml6d4GA-10" value="Email encaminhado para &#xa;abuse@cip-bancos.org.br" style="shape=image;verticalLabelPosition=bottom;labelBackgroundColor=default;verticalAlign=top;aspect=fixed;imageAspect=0;image=data:image/svg+xml,PHN2ZyB4bWxucz0iaHR0cDovL3d3dy53My5vcmcvMjAwMC9zdmciIGhlaWdodD0iNDhweCIgd2lkdGg9IjQ4cHgiIHZpZXdCb3g9IjAgMCA0OCA0OCI+PHBhdGggZD0iTTQzLjI1NSwyMy41NDdsLTYuODEtMy45Njd2MTEuNTk0SDQ0di02LjMzMUM0NCwyNC4zMDksNDMuNzE2LDIzLjgxNiw0My4yNTUsMjMuNTQ3eiIgZmlsbD0iIzEwMzI2MiIvPjxwYXRoIGQ9Ik0xMywxMGgxMHY5SDEzVjEweiIgZmlsbD0iIzAwODRkNyIvPjxwYXRoIGQ9Ik0yMywxMGgxMHY5SDIzVjEweiIgZmlsbD0iIzMzYWZlYyIvPjxwYXRoIGQ9Ik0zMywxMGgxMHY5SDMzVjEweiIgZmlsbD0iIzU0ZGFmZiIvPjxwYXRoIGQ9Ik0yMywxOWgxMHY5SDIzVjE5eiIgZmlsbD0iIzAyN2FkNCIvPjxwYXRoIGQ9Ik0yMywyOGgxMHY5SDIzVjI4eiIgZmlsbD0iIzA1NTNhNCIvPjxwYXRoIGQ9Ik0zMywxOWgxMHY5SDMzVjE5eiIgZmlsbD0iIzI1YTJlNSIvPjxwYXRoIGQ9Ik0zMywyOGgxMHY5SDMzVjI4eiIgZmlsbD0iIzAyNjJiOCIvPjxwb2x5Z29uIG9wYWNpdHk9Ii4wMTkiIHBvaW50cz0iMTMsMzcgNDMsMzcgNDMsMjQuMjM4IDI4Ljk5LDMyLjIzOCAxMywyNC4yMzgiLz48cG9seWdvbiBvcGFjaXR5PSIuMDM4IiBwb2ludHM9IjEzLDM3IDQzLDM3IDQzLDI0LjQ3NiAyOC45OSwzMi40NzYgMTMsMjQuNDc2Ii8+PHBvbHlnb24gb3BhY2l0eT0iLjA1NyIgcG9pbnRzPSIxMywzNyA0MywzNyA0MywyNC43MTQgMjguOTksMzIuNzE0IDEzLDI0LjcxNCIvPjxwb2x5Z29uIG9wYWNpdHk9Ii4wNzYiIHBvaW50cz0iMTMsMzcgNDMsMzcgNDMsMjQuOTUyIDI4Ljk5LDMyLjk1MiAxMywyNC45NTIiLz48cG9seWdvbiBvcGFjaXR5PSIuMDk1IiBwb2ludHM9IjEzLDM3IDQzLDM3IDQzLDI1LjE5IDI4Ljk5LDMzLjE5IDEzLDI1LjE5Ii8+PHBvbHlnb24gb3BhY2l0eT0iLjExNCIgcG9pbnRzPSIxMywzNyA0MywzNyA0MywyNS40MjkgMjguOTksMzMuNDI5IDEzLDI1LjQyOSIvPjxwb2x5Z29uIG9wYWNpdHk9Ii4xMzMiIHBvaW50cz0iMTMsMzcgNDMsMzcgNDMsMjUuNjY3IDI4Ljk5LDMzLjY2NyAxMywyNS42NjciLz48cG9seWdvbiBvcGFjaXR5PSIuMTUyIiBwb2ludHM9IjEzLDM3IDQzLDM3IDQzLDI1LjkwNSAyOC45OSwzMy45MDUgMTMsMjUuOTA1Ii8+PHBvbHlnb24gb3BhY2l0eT0iLjE3MSIgcG9pbnRzPSIxMywzNyA0MywzNyA0MywyNi4xNDMgMjguOTksMzQuMTQzIDEzLDI2LjE0MyIvPjxwb2x5Z29uIG9wYWNpdHk9Ii4xOTEiIHBvaW50cz0iMTMsMzcgNDMsMzcgNDMsMjYuMzgxIDI4Ljk5LDM0LjM4MSAxMywyNi4zODEiLz48cG9seWdvbiBvcGFjaXR5PSIuMjA5IiBwb2ludHM9IjEzLDM3IDQzLDM3IDQzLDI2LjYxOSAyOC45OSwzNC42MTkgMTMsMjYuNjE5Ii8+PHBvbHlnb24gb3BhY2l0eT0iLjIyOSIgcG9pbnRzPSIxMywzNyA0MywzNyA0MywyNi44NTcgMjguOTksMzQuODU3IDEzLDI2Ljg1NyIvPjxwb2x5Z29uIG9wYWNpdHk9Ii4yNDgiIHBvaW50cz0iMTMsMzcgNDMsMzcgNDMsMjcuMDk1IDI4Ljk5LDM1LjA5NSAxMywyNy4wOTUiLz48cG9seWdvbiBvcGFjaXR5PSIuMjY3IiBwb2ludHM9IjEzLDM3IDQzLDM3IDQzLDI3LjMzMyAyOC45OSwzNS4zMzMgMTMsMjcuMzMzIi8+PHBvbHlnb24gb3BhY2l0eT0iLjI4NiIgcG9pbnRzPSIxMywzNyA0MywzNyA0MywyNy41NzEgMjguOTksMzUuNTcxIDEzLDI3LjU3MSIvPjxwb2x5Z29uIG9wYWNpdHk9Ii4zMDUiIHBvaW50cz0iMTMsMzcgNDMsMzcgNDMsMjcuODEgMjguOTksMzUuODEgMTMsMjcuODEiLz48cG9seWdvbiBvcGFjaXR5PSIuMzI0IiBwb2ludHM9IjEzLDM3IDQzLDM3IDQzLDI4LjA0OCAyOC45OSwzNi4wNDggMTMsMjguMDQ4Ii8+PHBvbHlnb24gb3BhY2l0eT0iLjM0MyIgcG9pbnRzPSIxMywzNyA0MywzNyA0MywyOC4yODYgMjguOTksMzYuMjg2IDEzLDI4LjI4NiIvPjxwb2x5Z29uIG9wYWNpdHk9Ii4zNjIiIHBvaW50cz0iMTMsMzcgNDMsMzcgNDMsMjguNTI0IDI4Ljk5LDM2LjUyNCAxMywyOC41MjQiLz48cG9seWdvbiBvcGFjaXR5PSIuMzgxIiBwb2ludHM9IjEzLDM3IDQzLDM3IDQzLDI4Ljc2MiAyOC45OSwzNi43NjIgMTMsMjguNzYyIi8+PHBvbHlnb24gb3BhY2l0eT0iLjQiIHBvaW50cz0iMTMsMzcgNDMsMzcgNDMsMjkgMjguOTksMzcgMTMsMjkiLz48bGluZWFyR3JhZGllbnQgZ3JhZGllbnRVbml0cz0idXNlclNwYWNlT25Vc2UiIHkyPSIzNi4wMjQiIHkxPSIyNC41NTciIHgyPSIzMi4yODYiIHgxPSIzOC45MjUiIGlkPSJRZjcwMTVSb3NZZV9IcGpLZUcwUVRhIj48c3RvcCBzdG9wLWNvbG9yPSIjMzFhYmVjIiBvZmZzZXQ9IjAiLz48c3RvcCBzdG9wLWNvbG9yPSIjMTU4MmQ1IiBvZmZzZXQ9IjEiLz48L2xpbmVhckdyYWRpZW50PjxwYXRoIGQ9Ik0xNS40NDEsNDJoMjYuNTYzYzEuMTA0LDAsMS45OTktMC44ODksMi0xLjk5NEM0NC4wMDcsMzUuNDg1LDQ0LDI0Ljg0Myw0NCwyNC44NDMmIzk7cy0wLjAwNywwLjIyMi0xLjc1MSwxLjIxMlMxNC43NDQsNDEuNTY2LDE0Ljc0NCw0MS41NjZTMTQuOTc4LDQyLDE1LjQ0MSw0MnoiIGZpbGw9InVybCgjUWY3MDE1Um9zWWVfSHBqS2VHMFFUYSkiLz48bGluZWFyR3JhZGllbnQgZ3JhZGllbnRVbml0cz0idXNlclNwYWNlT25Vc2UiIHkyPSI5LjA3NCIgeTE9IjYuOTkyIiB4Mj0iNDEuMjg1IiB4MT0iMTMuNjY1IiBpZD0iUWY3MDE1Um9zWWVfSHBqS2VHMFFUYiI+PHN0b3Agc3RvcC1jb2xvcj0iIzA3NmRiNCIgb2Zmc2V0PSIuMDQyIi8+PHN0b3Agc3RvcC1jb2xvcj0iIzA0NjFhZiIgb2Zmc2V0PSIuODUiLz48L2xpbmVhckdyYWRpZW50PjxwYXRoIGQ9Ik00MywxMEgxM1Y4YzAtMS4xMDUsMC44OTUtMiwyLTJoMjZjMS4xMDUsMCwyLDAuODk1LDIsMlYxMHoiIGZpbGw9InVybCgjUWY3MDE1Um9zWWVfSHBqS2VHMFFUYikiLz48bGluZWFyR3JhZGllbnQgZ3JhZGllbnRVbml0cz0idXNlclNwYWNlT25Vc2UiIHkyPSI0MS4xIiB5MT0iMzMuMjE4IiB4Mj0iMjMuNjM4IiB4MT0iMjguMTUzIiBpZD0iUWY3MDE1Um9zWWVfSHBqS2VHMFFUYyI+PHN0b3Agc3RvcC1jb2xvcj0iIzMzYWNlZSIgb2Zmc2V0PSIwIi8+PHN0b3Agc3RvcC1jb2xvcj0iIzFiOGVkZiIgb2Zmc2V0PSIxIi8+PC9saW5lYXJHcmFkaWVudD48cGF0aCBkPSJNMTMsMjV2MTVjMCwxLjEwNSwwLjg5NSwyLDIsMmgxNWgxMi4wMDRjMC40NjIsMCwwLjg4My0wLjE2MiwxLjIyMS0wLjQyNUwxMywyNXoiIGZpbGw9InVybCgjUWY3MDE1Um9zWWVfSHBqS2VHMFFUYykiLz48cGF0aCBvcGFjaXR5PSIuMDUiIGQ9Ik0yMS4zMTksMTNIMTN2MjRoOC4zMTlDMjMuMzUyLDM3LDI1LDM1LjM1MiwyNSwzMy4zMTlWMTYuNjgxQzI1LDE0LjY0OCwyMy4zNTIsMTMsMjEuMzE5LDEzeiIvPjxwYXRoIG9wYWNpdHk9Ii4wNyIgZD0iTTIxLjIxMywzNkgxM1YxMy4zMzNoOC4yMTNjMS43MjQsMCwzLjEyMSwxLjM5NywzLjEyMSwzLjEyMXYxNi40MjUmIzk7QzI0LjMzMywzNC42MDMsMjIuOTM2LDM2LDIxLjIxMywzNnoiLz48cGF0aCBvcGFjaXR5PSIuMDkiIGQ9Ik0yMS4xMDYsMzVIMTNWMTMuNjY3aDguMTA2YzEuNDE0LDAsMi41NiwxLjE0NiwyLjU2LDIuNTZWMzIuNDRDMjMuNjY3LDMzLjg1NCwyMi41MiwzNSwyMS4xMDYsMzV6Ii8+PGxpbmVhckdyYWRpZW50IGdyYWRpZW50VW5pdHM9InVzZXJTcGFjZU9uVXNlIiB5Mj0iMzMuNDEiIHkxPSIxNC41MyIgeDI9IjIyLjQxIiB4MT0iMy41MyIgaWQ9IlFmNzAxNVJvc1llX0hwaktlRzBRVGQiPjxzdG9wIHN0b3AtY29sb3I9IiMxNzg0ZDgiIG9mZnNldD0iMCIvPjxzdG9wIHN0b3AtY29sb3I9IiMwODY0YzUiIG9mZnNldD0iMSIvPjwvbGluZWFyR3JhZGllbnQ+PHBhdGggZD0iTTIxLDM0SDVjLTEuMTA1LDAtMi0wLjg5NS0yLTJWMTZjMC0xLjEwNSwwLjg5NS0yLDItMmgxNmMxLjEwNSwwLDIsMC44OTUsMiwydjE2JiM5O0MyMywzMy4xMDUsMjIuMTA1LDM0LDIxLDM0eiIgZmlsbD0idXJsKCNRZjcwMTVSb3NZZV9IcGpLZUcwUVRkKSIvPjxwYXRoIGQ9Ik0xMywxOC42OTFjLTMuMTExLDAtNC45ODUsMi4zNzctNC45ODUsNS4zMDlTOS44ODIsMjkuMzA5LDEzLDI5LjMwOSYjOTtjMy4xMTksMCw0Ljk4NS0yLjM3Nyw0Ljk4NS01LjMwOEMxNy45ODUsMjEuMDY4LDE2LjExMSwxOC42OTEsMTMsMTguNjkxeiBNMTMsMjcuNTE3Yy0xLjc2NSwwLTIuODItMS41NzQtMi44Mi0zLjUxNiYjOTtzMS4wNi0zLjUxNiwyLjgyLTMuNTE2czIuODIxLDEuNTc1LDIuODIxLDMuNTE2UzE0Ljc2NCwyNy41MTcsMTMsMjcuNTE3eiIgZmlsbD0iI2ZmZiIvPjwvc3ZnPg==;" vertex="1" parent="1">
          <mxGeometry x="680" y="430" width="48" height="48" as="geometry" />
        </mxCell>
        <mxCell id="nSn1qpeJ9wSEvml6d4GA-28" style="edgeStyle=orthogonalEdgeStyle;rounded=0;orthogonalLoop=1;jettySize=auto;html=1;entryX=0;entryY=0.5;entryDx=0;entryDy=0;" edge="1" parent="1" source="nSn1qpeJ9wSEvml6d4GA-12">
          <mxGeometry relative="1" as="geometry">
            <mxPoint x="450" y="223.5" as="targetPoint" />
          </mxGeometry>
        </mxCell>
        <mxCell id="nSn1qpeJ9wSEvml6d4GA-12" value="Gerar &#xa;secret key" style="shape=image;verticalLabelPosition=bottom;labelBackgroundColor=default;verticalAlign=top;aspect=fixed;imageAspect=0;image=data:image/svg+xml,PHN2ZyB4bWxuczp4bGluaz0iaHR0cDovL3d3dy53My5vcmcvMTk5OS94bGluayIgeG1sbnM9Imh0dHA6Ly93d3cudzMub3JnLzIwMDAvc3ZnIiB2aWV3Qm94PSIwIDAgNDggNDgiPiYjeGE7PGRlZnM+JiN4YTsmI3hhOyYjeGE7JiN4YTsgPHBhdGggZD0iTTExLDZjLTIuNzU3LDAtNSwyLjI0My01LDVzMi4yNDMsNSw1LDVzNS0yLjI0Myw1LTVTMTMuNzU3LDYsMTEsNnogTTExLDE0Yy0xLjY1NCwwLTMtMS4zNDYtMy0zczEuMzQ2LTMsMy0zczMsMS4zNDYsMywzIFMxMi42NTQsMTQsMTEsMTR6IE0yNi43NiwxOS44M0MyOS4xOSwxNC41MiwyOC4wOSw4LjI3OSwyMy45Miw0LjFDMjEuMjcsMS40NiwxNy43NSwwLDE0LjAxLDBTNi43NSwxLjQ2LDQuMSw0LjEgQzEuNDYsNi43NSwwLDEwLjI3LDAsMTQuMDFzMS40Niw3LjI2LDQuMSw5LjkxYzIuNjUsMi42NCw2LjE3LDQuMSw5LjkxLDQuMWMyLDAsNC0wLjQzLDUuODItMS4yNmwzLjg1OSwzLjg2bDUuMzcsMS44OTkgbDEuMDYxLDQuODAxbDQuNzIsMS4wNGwxLjA4LDQuODU5bDMuOTYsMC4wOUw0Mi40LDQ4SDQ4di02LjQxTDI2Ljc2LDE5LjgzeiBNNDYsNDZoLTIuNGwtMi41MS00LjY2bC0zLjU2LTAuMDhsLTEuMDExLTQuNTggbC00LjcyLTEuMDRMMzAuNzcsMzFsLTUuOTktMi4xMmwtNC41NTktNC41NmwtMC42NSwwLjM0Yy0xLjcxMSwwLjg5LTMuNjMxLDEuMzU5LTUuNTYxLDEuMzU5Yy0zLjIxLDAtNi4yMi0xLjI1LTguNDktMy41MiBDMy4yNSwyMC4yMywyLDE3LjIyMSwyLDE0LjAxYzAtMy4yMSwxLjI1LTYuMjIsMy41Mi04LjQ5QzcuNzksMy4yNSwxMC44LDIsMTQuMDEsMmMzLjIxMSwwLDYuMjIxLDEuMjUsOC40OSwzLjUyIGMzLjczLDMuNzMsNC42LDkuMzcxLDIuMTYsMTQuMDUxbC0wLjMzLDAuNjRMNDYsNDIuNDFWNDZ6IiBpZD0iaS00MzciIGZpbGw9IiMwMDAwMDAiLz4gJiN4YTs8L2RlZnM+JiN4YTsmI3hhOzx1c2UgeGxpbms6aHJlZj0iI2ktNDM3IiB5PSIwIiB4PSIwIi8+JiN4YTsmI3hhOzwvc3ZnPg==;" vertex="1" parent="1">
          <mxGeometry x="340" y="199.5" width="48" height="48" as="geometry" />
        </mxCell>
        <mxCell id="nSn1qpeJ9wSEvml6d4GA-29" value="Coleta de credenciais:&#xa;Tenant ID, Secret key ID,&#xa;Application ID" style="shape=image;verticalLabelPosition=bottom;labelBackgroundColor=default;verticalAlign=top;aspect=fixed;imageAspect=0;image=data:image/svg+xml,PHN2ZyB4bWxuczp4bGluaz0iaHR0cDovL3d3dy53My5vcmcvMTk5OS94bGluayIgeG1sbnM9Imh0dHA6Ly93d3cudzMub3JnLzIwMDAvc3ZnIiB4bWw6c3BhY2U9InByZXNlcnZlIiBzdHlsZT0iZW5hYmxlLWJhY2tncm91bmQ6bmV3IDAgMCA2NCA2NDsiIHZpZXdCb3g9IjAgMCA2NCA2NCIgeT0iMHB4IiB4PSIwcHgiIGlkPSJMYXllcl8xXzFfIiB2ZXJzaW9uPSIxLjEiPiYjeGE7PHBhdGggZD0iTTQzLDQySDIxYy0xLjY1NCwwLTMsMS4zNDYtMywzdjEwYzAsMS42NTQsMS4zNDYsMywzLDNoMjJjMS42NTQsMCwzLTEuMzQ2LDMtM1Y0NUM0Niw0My4zNDYsNDQuNjU0LDQyLDQzLDQyeiBNMjEsNDRoMjImIzEwOyYjOTtjMC41NTIsMCwxLDAuNDQ4LDEsMXY0aC04LjE0MmMtMC40NDctMS43MjEtMS45OTktMy0zLjg1OC0zcy0zLjQxMSwxLjI3OS0zLjg1OCwzSDIwdi00QzIwLDQ0LjQ0OCwyMC40NDgsNDQsMjEsNDR6IE0zNCw1MCYjMTA7JiM5O2MwLDEuMTAzLTAuODk3LDItMiwycy0yLTAuODk3LTItMnMwLjg5Ny0yLDItMlMzNCw0OC44OTcsMzQsNTB6IE00Myw1NkgyMWMtMC41NTIsMC0xLTAuNDQ4LTEtMXYtNGg4LjE0MiYjMTA7JiM5O2MwLjQ0NywxLjcyMSwxLjk5OSwzLDMuODU4LDNzMy40MTEtMS4yNzksMy44NTgtM0g0NHY0QzQ0LDU1LjU1Miw0My41NTIsNTYsNDMsNTZ6Ii8+JiN4YTs8cGF0aCBkPSJNMzIsNDBjNy4xNjgsMCwxMy01LjgzMiwxMy0xM3MtNS44MzItMTMtMTMtMTNzLTEzLDUuODMyLTEzLDEzUzI0LjgzMiw0MCwzMiw0MHogTTI0LjAyNiwzNC41NTUmIzEwOyYjOTtjMS4xMDEtMC40NDIsMi4yMzEtMC43OSwzLjM4LTEuMDQxYzAuNzMxLDEuNzM3LDEuNjE2LDMuMTk0LDIuMzYxLDQuMjU3QzI3LjUyOCwzNy4zMDcsMjUuNTQzLDM2LjE1NSwyNC4wMjYsMzQuNTU1eiYjMTA7JiM5OyBNMzQuNTU4LDIwLjgzM2MtMS42OTksMC4yMDMtMy40MTcsMC4yMDMtNS4xMTUsMGMwLjg0Ni0xLjg3MywxLjg3Ny0zLjM3MywyLjU1OC00LjI2MUMzMi42ODEsMTcuNDYsMzMuNzEyLDE4Ljk2LDM0LjU1OCwyMC44MzN6JiMxMDsmIzk7IE0zMiwyMi45ODdjMS4xMDIsMCwyLjIwMy0wLjA4NywzLjI5Ni0wLjI0MWMwLjMyOCwxLjAyMiwwLjU2NywyLjExNSwwLjY1OSwzLjI1NGgtNy45MTFjMC4wOTItMS4xMzgsMC4zMzItMi4yMzEsMC42NTktMy4yNTQmIzEwOyYjOTtDMjkuNzk3LDIyLjkwMSwzMC44OTgsMjIuOTg3LDMyLDIyLjk4N3ogTTI5LjQ0MiwzMy4xNjdjMS42OTgtMC4yMDMsMy40MTctMC4yMDMsNS4xMTUsMEMzMy43MTIsMzUuMDQsMzIuNjgxLDM2LjU0LDMyLDM3LjQyOCYjMTA7JiM5O0MzMS4zMTksMzYuNTQsMzAuMjg4LDM1LjA0LDI5LjQ0MiwzMy4xNjd6IE0yOC43MDQsMzEuMjUzYy0wLjMyOC0xLjAyMi0wLjU2Ny0yLjExNS0wLjY1OS0zLjI1M2g3LjkxMSYjMTA7JiM5O2MtMC4wOTIsMS4xMzgtMC4zMzIsMi4yMzEtMC42NTksMy4yNTNDMzMuMTEsMzAuOTQ0LDMwLjg5LDMwLjk0NCwyOC43MDQsMzEuMjUzeiBNMzcuOTU2LDI4aDQuOTk0JiMxMDsmIzk7Yy0wLjE2MywxLjc5OS0wLjc2NCwzLjQ3LTEuNjksNC45MTVjLTEuMjktMC41NTYtMi42MjItMC45OS0zLjk3Ny0xLjMwMkMzNy42MjQsMzAuNDgyLDM3Ljg2OCwyOS4yNywzNy45NTYsMjh6IE0zNy45NTYsMjYmIzEwOyYjOTtjLTAuMDg4LTEuMjctMC4zMzEtMi40ODItMC42NzQtMy42MTNjMS4zNTUtMC4zMTIsMi42ODctMC43NDYsMy45NzgtMS4zMDJjMC45MjcsMS40NDUsMS41MjcsMy4xMTYsMS42OSw0LjkxNUgzNy45NTZ6IE0yNi4wNDQsMjYmIzEwOyYjOTtoLTQuOTk0YzAuMTYzLTEuNzk5LDAuNzY0LTMuNDcsMS42OS00LjkxNWMxLjI5LDAuNTU2LDIuNjIyLDAuOTksMy45NzgsMS4zMDJDMjYuMzc2LDIzLjUxOCwyNi4xMzIsMjQuNzMsMjYuMDQ0LDI2eiBNMjYuMDQ0LDI4JiMxMDsmIzk7YzAuMDg4LDEuMjcsMC4zMzEsMi40ODIsMC42NzQsMy42MTNjLTEuMzU1LDAuMzEyLTIuNjg3LDAuNzQ2LTMuOTc3LDEuMzAyYy0wLjkyNy0xLjQ0NS0xLjUyNy0zLjExNi0xLjY5LTQuOTE1SDI2LjA0NHomIzEwOyYjOTsgTTM0LjIzMywzNy43NzFjMC43NDUtMS4wNjMsMS42My0yLjUyMSwyLjM2MS00LjI1N2MxLjE0OSwwLjI1MSwyLjI3OSwwLjU5OSwzLjM4LDEuMDQxQzM4LjQ1NywzNi4xNTUsMzYuNDcyLDM3LjMwNywzNC4yMzMsMzcuNzcxJiMxMDsmIzk7eiBNMzkuOTc0LDE5LjQ0NWMtMS4xMDEsMC40NDItMi4yMzEsMC43OS0zLjM4LDEuMDQxYy0wLjczMS0xLjczNy0xLjYxNi0zLjE5NC0yLjM2MS00LjI1NyYjMTA7JiM5O0MzNi40NzIsMTYuNjkzLDM4LjQ1NywxNy44NDUsMzkuOTc0LDE5LjQ0NXogTTI5Ljc2NywxNi4yMjljLTAuNzQ1LDEuMDYzLTEuNjMsMi41MjEtMi4zNjEsNC4yNTcmIzEwOyYjOTtjLTEuMTQ5LTAuMjUxLTIuMjc5LTAuNTk5LTMuMzgtMS4wNDFDMjUuNTQzLDE3Ljg0NSwyNy41MjgsMTYuNjkzLDI5Ljc2NywxNi4yMjl6Ii8+JiN4YTs8cGF0aCBkPSJNNTAsMkgxMmMtMS42NTQsMC0zLDEuMzQ2LTMsM3Y1MmMwLDIuNzU3LDIuMjQzLDUsNSw1aDM2YzIuNzU3LDAsNS0yLjI0Myw1LTVWMTJ2LTFWN0M1NSw0LjI0Myw1Mi43NTcsMiw1MCwyeiBNMTIsNGgzOCYjMTA7JiM5O2MxLjY1NCwwLDMsMS4zNDYsMywzdjAuMDI2QzUyLjE2Miw2LjM5MSw1MS4xMyw2LDUwLDZIMTJjLTAuNTUyLDAtMS0wLjQ0OC0xLTFTMTEuNDQ4LDQsMTIsNHogTTUzLDU3YzAsMS42NTQtMS4zNDYsMy0zLDNIMTQmIzEwOyYjOTtjLTEuNjU0LDAtMy0xLjM0Ni0zLTNWNy44MjlDMTEuMzEyLDcuOTM5LDExLjY0OSw4LDEyLDhoMzhjMS42NTQsMCwzLDEuMzQ2LDMsM3YxVjU3eiIvPiYjeGE7PHJlY3QgaGVpZ2h0PSIyIiB3aWR0aD0iMiIgeT0iMTAiIHg9IjI3Ii8+JiN4YTs8cmVjdCBoZWlnaHQ9IjIiIHdpZHRoPSIyIiB5PSIxMCIgeD0iMzEiLz4mI3hhOzxyZWN0IGhlaWdodD0iMiIgd2lkdGg9IjIiIHk9IjEwIiB4PSIzNSIvPiYjeGE7PC9zdmc+;" vertex="1" parent="1">
          <mxGeometry x="450" y="191.5" width="64" height="64" as="geometry" />
        </mxCell>
        <mxCell id="nSn1qpeJ9wSEvml6d4GA-34" value="" style="edgeStyle=orthogonalEdgeStyle;rounded=0;orthogonalLoop=1;jettySize=auto;html=1;entryX=0;entryY=0.5;entryDx=0;entryDy=0;" edge="1" parent="1" source="nSn1qpeJ9wSEvml6d4GA-31" target="nSn1qpeJ9wSEvml6d4GA-4">
          <mxGeometry relative="1" as="geometry">
            <Array as="points">
              <mxPoint x="660" y="224" />
            </Array>
          </mxGeometry>
        </mxCell>
        <mxCell id="nSn1qpeJ9wSEvml6d4GA-31" value="Editar variaveis&#xa;de ambiente" style="shape=image;verticalLabelPosition=bottom;labelBackgroundColor=default;verticalAlign=top;aspect=fixed;imageAspect=0;image=data:image/svg+xml,PHN2ZyB4bWxucz0iaHR0cDovL3d3dy53My5vcmcvMjAwMC9zdmciIGNsYXNzPSJmZWF0aGVyIGZlYXRoZXItZmlsZS10ZXh0IiBzdHJva2UtbGluZWpvaW49InJvdW5kIiBzdHJva2UtbGluZWNhcD0icm91bmQiIHN0cm9rZS13aWR0aD0iMiIgc3Ryb2tlPSJjdXJyZW50Q29sb3IiIGZpbGw9Im5vbmUiIHZpZXdCb3g9IjAgMCAyNCAyNCI+PHBhdGggZD0iTTE0IDJINmEyIDIgMCAwIDAtMiAydjE2YTIgMiAwIDAgMCAyIDJoMTJhMiAyIDAgMCAwIDItMlY4eiIvPjxwb2x5bGluZSBwb2ludHM9IjE0IDIgMTQgOCAyMCA4Ii8+PGxpbmUgeTI9IjEzIiB4Mj0iOCIgeTE9IjEzIiB4MT0iMTYiLz48bGluZSB5Mj0iMTciIHgyPSI4IiB5MT0iMTciIHgxPSIxNiIvPjxwb2x5bGluZSBwb2ludHM9IjEwIDkgOSA5IDggOSIvPjwvc3ZnPg==;" vertex="1" parent="1">
          <mxGeometry x="585" y="201.75" width="44.5" height="44.5" as="geometry" />
        </mxCell>
        <mxCell id="nSn1qpeJ9wSEvml6d4GA-33" value="" style="edgeStyle=orthogonalEdgeStyle;rounded=0;orthogonalLoop=1;jettySize=auto;html=1;startArrow=none;exitX=1;exitY=0.5;exitDx=0;exitDy=0;" edge="1" parent="1">
          <mxGeometry relative="1" as="geometry">
            <mxPoint x="514" y="222.97" as="sourcePoint" />
            <mxPoint x="580" y="223.49857142857135" as="targetPoint" />
            <Array as="points">
              <mxPoint x="580" y="223" />
            </Array>
          </mxGeometry>
        </mxCell>
        <mxCell id="nSn1qpeJ9wSEvml6d4GA-39" value="" style="edgeStyle=orthogonalEdgeStyle;rounded=0;orthogonalLoop=1;jettySize=auto;html=1;" edge="1" parent="1" source="nSn1qpeJ9wSEvml6d4GA-37" target="nSn1qpeJ9wSEvml6d4GA-38">
          <mxGeometry relative="1" as="geometry" />
        </mxCell>
        <mxCell id="nSn1qpeJ9wSEvml6d4GA-37" value="Url de acesso&#xa;a aplicação" style="shape=image;verticalLabelPosition=bottom;labelBackgroundColor=default;verticalAlign=top;aspect=fixed;imageAspect=0;image=data:image/svg+xml,PHN2ZyB4bWxuczp4bGluaz0iaHR0cDovL3d3dy53My5vcmcvMTk5OS94bGluayIgeG1sbnM9Imh0dHA6Ly93d3cudzMub3JnLzIwMDAvc3ZnIiB2ZXJzaW9uPSIxLjEiIHZpZXdCb3g9IjAgMCAyMCAyMCIgaGVpZ2h0PSIyMHB4IiB3aWR0aD0iMjBweCI+JiN4YTsgICAgJiN4YTsgICAgPHRpdGxlPmZpbGVfdXJsIFsjMTczNF08L3RpdGxlPiYjeGE7ICAgIDxkZXNjPkNyZWF0ZWQgd2l0aCBTa2V0Y2guPC9kZXNjPiYjeGE7ICAgIDxkZWZzLz4mI3hhOyAgICA8ZyBmaWxsLXJ1bGU9ImV2ZW5vZGQiIGZpbGw9Im5vbmUiIHN0cm9rZS13aWR0aD0iMSIgc3Ryb2tlPSJub25lIiBpZD0iUGFnZS0xIj4mI3hhOyAgICAgICAgPGcgZmlsbD0iIzAwMDAwMCIgdHJhbnNmb3JtPSJ0cmFuc2xhdGUoLTM0MC4wMDAwMDAsIC0xMzU5LjAwMDAwMCkiIGlkPSJEcmliYmJsZS1MaWdodC1QcmV2aWV3Ij4mI3hhOyAgICAgICAgICAgIDxnIHRyYW5zZm9ybT0idHJhbnNsYXRlKDU2LjAwMDAwMCwgMTYwLjAwMDAwMCkiIGlkPSJpY29ucyI+JiN4YTsgICAgICAgICAgICAgICAgPHBhdGggaWQ9ImZpbGVfdXJsLVsjMTczNF0iIGQ9Ik0yOTcuOTc5MiwxMTk5LjAwMDUgTDI4NC4wMDAyLDExOTkuMDAwNSBMMjg0LjAwMDIsMTIwOC45NDgyNyBMMjg2LjAwMDIsMTIwOC45NDgyNyBMMjg2LjAwMDIsMTIwMC45OTAwNSBMMjk2LjAwMDIsMTIwMC45OTAwNSBMMjk2LjAwMDIsMTIwNi45NTg3MiBMMzAyLjAwMDIsMTIwNi45NTg3MiBMMzAyLjAwMDIsMTIwOC45NDgyNyBMMzA0LjAwMDIsMTIwOC45NDgyNyBMMzA0LjAwMDIsMTIwNS40MDQ4OCBMMjk3Ljk3OTIsMTE5OS4wMDA1IFogTTI5NS4wMDAyLDEyMTQuMDI2NjEgQzI5NS4wMDAyLDEyMTMuNDc2NSAyOTQuNTUyMiwxMjEzLjAzMTg0IDI5NC4wMDAyLDEyMTMuMDMxODQgTDI5My4wMDAyLDEyMTMuMDMxODQgTDI5My4wMDAyLDEyMTUuMDIxMzkgTDI5NC4wMDAyLDEyMTUuMDIxMzkgQzI5NC41NTIyLDEyMTUuMDIxMzkgMjk1LjAwMDIsMTIxNC41NzU3MyAyOTUuMDAwMiwxMjE0LjAyNjYxIEwyOTUuMDAwMiwxMjE0LjAyNjYxIFogTTI5NS43MjQyLDEyMTYuMzg0MjQgTDI5Ny4wMDAyLDEyMTguODk2MDUgTDI5NS4wMDAyLDEyMTguODk2MDUgTDI5NC4wMDAyLDEyMTYuOTA2NDkgTDI5My4wMDAyLDEyMTYuOTA2NDkgTDI5My4wMDAyLDEyMTguODk2MDUgTDI5MS4wMDAyLDEyMTguODk2MDUgTDI5MS4wMDAyLDEyMTAuOTM3ODMgTDI5NC4wMDAyLDEyMTAuOTM3ODMgQzI5NS42NTcyLDEyMTAuOTM3ODMgMjk3LjAwMDIsMTIxMi4zMjU1NCAyOTcuMDAwMiwxMjEzLjk3Mzg5IEMyOTcuMDAwMiwxMjE0Ljk4MjU5IDI5Ni40OTQyLDEyMTUuODQ0MDcgMjk1LjcyNDIsMTIxNi4zODQyNCBMMjk1LjcyNDIsMTIxNi4zODQyNCBaIE0zMDAuMDAwMiwxMjEwLjkzNzgzIEwyOTguMDAwMiwxMjEwLjkzNzgzIEwyOTguMDAwMiwxMjE4Ljg5NjA1IEwzMDQuMDAwMiwxMjE4Ljg5NjA1IEwzMDQuMDAwMiwxMjE2LjkwNjQ5IEwzMDAuMDAwMiwxMjE2LjkwNjQ5IEwzMDAuMDAwMiwxMjEwLjkzNzgzIFogTTI4OC4wMDAyLDEyMTAuOTM3ODMgTDI5MC4wMDAyLDEyMTAuOTM3ODMgTDI5MC4wMDAyLDEyMTYuMDE2MTcgQzI5MC4wMDAyLDEyMTcuNjYzNTIgMjg4LjY1NzIsMTIxOS4wMDA1IDI4Ny4wMDAyLDEyMTkuMDAwNSBDMjg1LjM0MzIsMTIxOS4wMDA1IDI4NC4wMDAyLDEyMTcuNjYzNTIgMjg0LjAwMDIsMTIxNi4wMTYxNyBMMjg0LjAwMDIsMTIxMC45Mzc4MyBMMjg2LjAwMDIsMTIxMC45Mzc4MyBMMjg2LjAwMDIsMTIxNi4wMTYxNyBDMjg2LjAwMDIsMTIxNi41NjUyOCAyODYuNDQ4MiwxMjE3LjAxMDk1IDI4Ny4wMDAyLDEyMTcuMDEwOTUgQzI4Ny41NTIyLDEyMTcuMDEwOTUgMjg4LjAwMDIsMTIxNi41NjUyOCAyODguMDAwMiwxMjE2LjAxNjE3IEwyODguMDAwMiwxMjEwLjkzNzgzIFoiLz4mI3hhOyAgICAgICAgICAgIDwvZz4mI3hhOyAgICAgICAgPC9nPiYjeGE7ICAgIDwvZz4mI3hhOzwvc3ZnPg==;" vertex="1" parent="1">
          <mxGeometry x="940" y="205.75" width="40" height="40" as="geometry" />
        </mxCell>
        <mxCell id="nSn1qpeJ9wSEvml6d4GA-42" value="" style="edgeStyle=orthogonalEdgeStyle;rounded=0;orthogonalLoop=1;jettySize=auto;html=1;" edge="1" parent="1" source="nSn1qpeJ9wSEvml6d4GA-38" target="nSn1qpeJ9wSEvml6d4GA-41">
          <mxGeometry relative="1" as="geometry" />
        </mxCell>
        <mxCell id="nSn1qpeJ9wSEvml6d4GA-38" value="Acesso a url&#xa;por analista&#xa;com acesso a &#xa;abuse@cip-bancos.org.br" style="shape=image;verticalLabelPosition=bottom;labelBackgroundColor=default;verticalAlign=top;aspect=fixed;imageAspect=0;image=data:image/svg+xml,PHN2ZyB4bWxuczp4bGluaz0iaHR0cDovL3d3dy53My5vcmcvMTk5OS94bGluayIgeG1sbnM9Imh0dHA6Ly93d3cudzMub3JnLzIwMDAvc3ZnIiB2aWV3Qm94PSIwIDAgMTYgMTYiIHZlcnNpb249IjEuMSI+PHBhdGggdHJhbnNmb3JtPSJ0cmFuc2xhdGUoMy42MDk0OCwgLTAuMzkwNTI0KSIgZD0iTTcuMjE4OTUsMS41NjIxYzEuNTYyMSwxLjU2MjEgMS41NjIxLDQuMDk0NzYgMCw1LjY1Njg1Yy0xLjU2MjEsMS41NjIxIC00LjA5NDc2LDEuNTYyMSAtNS42NTY4NSwwYy0xLjU2MjEsLTEuNTYyMSAtMS41NjIxLC00LjA5NDc2IC04Ljg4MTc4ZS0xNiwtNS42NTY4NWMxLjU2MjEsLTEuNTYyMSA0LjA5NDc2LC0xLjU2MjEgNS42NTY4NSwtOC44ODE3OGUtMTYiLz48cGF0aCB0cmFuc2Zvcm09InRyYW5zbGF0ZSgxLCA4LjQxODk1KSIgZD0iTTEzLjEzNTcsMi40NjM4N2MtMy42NDY0OCwtMi40NjM4NyAtOC42MjUsLTIuNDYzODcgLTEyLjI3MTUsMGMtMC41NDEwMTYsMC4zNjUyMzQgLTAuODY0MjU4LDAuOTgyNDIyIC0wLjg2NDI1OCwxLjY1MTM3djMuNDY1ODJoMTR2LTMuNDY1ODJjMCwtMC42Njg5NDUgLTAuMzIzMjQyLC0xLjI4NjEzIC0wLjg2NDI1OCwtMS42NTEzN1oiLz48L3N2Zz4=;fontSize=11;" vertex="1" parent="1">
          <mxGeometry x="1040" y="202.75" width="46" height="46" as="geometry" />
        </mxCell>
        <mxCell id="nSn1qpeJ9wSEvml6d4GA-45" style="edgeStyle=orthogonalEdgeStyle;rounded=0;orthogonalLoop=1;jettySize=auto;html=1;fontSize=11;entryX=0.5;entryY=0;entryDx=0;entryDy=0;" edge="1" parent="1" source="nSn1qpeJ9wSEvml6d4GA-41" target="nSn1qpeJ9wSEvml6d4GA-4">
          <mxGeometry relative="1" as="geometry">
            <mxPoint x="1050" y="120" as="targetPoint" />
            <Array as="points">
              <mxPoint x="1190" y="140" />
              <mxPoint x="714" y="140" />
            </Array>
          </mxGeometry>
        </mxCell>
        <mxCell id="nSn1qpeJ9wSEvml6d4GA-41" value="Url de &#xa;concentimento&#xa;ao acesso &#xa;a aplicação" style="shape=image;verticalLabelPosition=bottom;labelBackgroundColor=default;verticalAlign=top;aspect=fixed;imageAspect=0;image=data:image/svg+xml,PHN2ZyB4bWxuczp4bGluaz0iaHR0cDovL3d3dy53My5vcmcvMTk5OS94bGluayIgeG1sbnM9Imh0dHA6Ly93d3cudzMub3JnLzIwMDAvc3ZnIiB2ZXJzaW9uPSIxLjEiIHZpZXdCb3g9IjAgMCAyMCAyMCIgaGVpZ2h0PSIyMHB4IiB3aWR0aD0iMjBweCI+JiN4YTsgICAgJiN4YTsgICAgPHRpdGxlPmZpbGVfdXJsIFsjMTczNF08L3RpdGxlPiYjeGE7ICAgIDxkZXNjPkNyZWF0ZWQgd2l0aCBTa2V0Y2guPC9kZXNjPiYjeGE7ICAgIDxkZWZzLz4mI3hhOyAgICA8ZyBmaWxsLXJ1bGU9ImV2ZW5vZGQiIGZpbGw9Im5vbmUiIHN0cm9rZS13aWR0aD0iMSIgc3Ryb2tlPSJub25lIiBpZD0iUGFnZS0xIj4mI3hhOyAgICAgICAgPGcgZmlsbD0iIzAwMDAwMCIgdHJhbnNmb3JtPSJ0cmFuc2xhdGUoLTM0MC4wMDAwMDAsIC0xMzU5LjAwMDAwMCkiIGlkPSJEcmliYmJsZS1MaWdodC1QcmV2aWV3Ij4mI3hhOyAgICAgICAgICAgIDxnIHRyYW5zZm9ybT0idHJhbnNsYXRlKDU2LjAwMDAwMCwgMTYwLjAwMDAwMCkiIGlkPSJpY29ucyI+JiN4YTsgICAgICAgICAgICAgICAgPHBhdGggaWQ9ImZpbGVfdXJsLVsjMTczNF0iIGQ9Ik0yOTcuOTc5MiwxMTk5LjAwMDUgTDI4NC4wMDAyLDExOTkuMDAwNSBMMjg0LjAwMDIsMTIwOC45NDgyNyBMMjg2LjAwMDIsMTIwOC45NDgyNyBMMjg2LjAwMDIsMTIwMC45OTAwNSBMMjk2LjAwMDIsMTIwMC45OTAwNSBMMjk2LjAwMDIsMTIwNi45NTg3MiBMMzAyLjAwMDIsMTIwNi45NTg3MiBMMzAyLjAwMDIsMTIwOC45NDgyNyBMMzA0LjAwMDIsMTIwOC45NDgyNyBMMzA0LjAwMDIsMTIwNS40MDQ4OCBMMjk3Ljk3OTIsMTE5OS4wMDA1IFogTTI5NS4wMDAyLDEyMTQuMDI2NjEgQzI5NS4wMDAyLDEyMTMuNDc2NSAyOTQuNTUyMiwxMjEzLjAzMTg0IDI5NC4wMDAyLDEyMTMuMDMxODQgTDI5My4wMDAyLDEyMTMuMDMxODQgTDI5My4wMDAyLDEyMTUuMDIxMzkgTDI5NC4wMDAyLDEyMTUuMDIxMzkgQzI5NC41NTIyLDEyMTUuMDIxMzkgMjk1LjAwMDIsMTIxNC41NzU3MyAyOTUuMDAwMiwxMjE0LjAyNjYxIEwyOTUuMDAwMiwxMjE0LjAyNjYxIFogTTI5NS43MjQyLDEyMTYuMzg0MjQgTDI5Ny4wMDAyLDEyMTguODk2MDUgTDI5NS4wMDAyLDEyMTguODk2MDUgTDI5NC4wMDAyLDEyMTYuOTA2NDkgTDI5My4wMDAyLDEyMTYuOTA2NDkgTDI5My4wMDAyLDEyMTguODk2MDUgTDI5MS4wMDAyLDEyMTguODk2MDUgTDI5MS4wMDAyLDEyMTAuOTM3ODMgTDI5NC4wMDAyLDEyMTAuOTM3ODMgQzI5NS42NTcyLDEyMTAuOTM3ODMgMjk3LjAwMDIsMTIxMi4zMjU1NCAyOTcuMDAwMiwxMjEzLjk3Mzg5IEMyOTcuMDAwMiwxMjE0Ljk4MjU5IDI5Ni40OTQyLDEyMTUuODQ0MDcgMjk1LjcyNDIsMTIxNi4zODQyNCBMMjk1LjcyNDIsMTIxNi4zODQyNCBaIE0zMDAuMDAwMiwxMjEwLjkzNzgzIEwyOTguMDAwMiwxMjEwLjkzNzgzIEwyOTguMDAwMiwxMjE4Ljg5NjA1IEwzMDQuMDAwMiwxMjE4Ljg5NjA1IEwzMDQuMDAwMiwxMjE2LjkwNjQ5IEwzMDAuMDAwMiwxMjE2LjkwNjQ5IEwzMDAuMDAwMiwxMjEwLjkzNzgzIFogTTI4OC4wMDAyLDEyMTAuOTM3ODMgTDI5MC4wMDAyLDEyMTAuOTM3ODMgTDI5MC4wMDAyLDEyMTYuMDE2MTcgQzI5MC4wMDAyLDEyMTcuNjYzNTIgMjg4LjY1NzIsMTIxOS4wMDA1IDI4Ny4wMDAyLDEyMTkuMDAwNSBDMjg1LjM0MzIsMTIxOS4wMDA1IDI4NC4wMDAyLDEyMTcuNjYzNTIgMjg0LjAwMDIsMTIxNi4wMTYxNyBMMjg0LjAwMDIsMTIxMC45Mzc4MyBMMjg2LjAwMDIsMTIxMC45Mzc4MyBMMjg2LjAwMDIsMTIxNi4wMTYxNyBDMjg2LjAwMDIsMTIxNi41NjUyOCAyODYuNDQ4MiwxMjE3LjAxMDk1IDI4Ny4wMDAyLDEyMTcuMDEwOTUgQzI4Ny41NTIyLDEyMTcuMDEwOTUgMjg4LjAwMDIsMTIxNi41NjUyOCAyODguMDAwMiwxMjE2LjAxNjE3IEwyODguMDAwMiwxMjEwLjkzNzgzIFoiLz4mI3hhOyAgICAgICAgICAgIDwvZz4mI3hhOyAgICAgICAgPC9nPiYjeGE7ICAgIDwvZz4mI3hhOzwvc3ZnPg==;" vertex="1" parent="1">
          <mxGeometry x="1169" y="205.75" width="40" height="40" as="geometry" />
        </mxCell>
        <mxCell id="nSn1qpeJ9wSEvml6d4GA-70" value="" style="edgeStyle=orthogonalEdgeStyle;rounded=0;orthogonalLoop=1;jettySize=auto;html=1;fontSize=8;" edge="1" parent="1">
          <mxGeometry relative="1" as="geometry">
            <mxPoint x="841.7241379310344" y="366" as="sourcePoint" />
            <mxPoint x="841.6551724137933" y="430" as="targetPoint" />
          </mxGeometry>
        </mxCell>
        <mxCell id="nSn1qpeJ9wSEvml6d4GA-59" value="" style="edgeStyle=orthogonalEdgeStyle;rounded=0;orthogonalLoop=1;jettySize=auto;html=1;fontSize=8;exitX=0.516;exitY=0.032;exitDx=0;exitDy=0;exitPerimeter=0;" edge="1" parent="1" source="nSn1qpeJ9wSEvml6d4GA-57" target="nSn1qpeJ9wSEvml6d4GA-37">
          <mxGeometry x="-0.0719" y="-1" relative="1" as="geometry">
            <Array as="points">
              <mxPoint x="843" y="170" />
              <mxPoint x="960" y="170" />
            </Array>
            <mxPoint as="offset" />
          </mxGeometry>
        </mxCell>
        <mxCell id="nSn1qpeJ9wSEvml6d4GA-96" value="Não" style="edgeLabel;html=1;align=center;verticalAlign=middle;resizable=0;points=[];fontSize=8;" vertex="1" connectable="0" parent="nSn1qpeJ9wSEvml6d4GA-59">
          <mxGeometry x="-0.8698" y="1" relative="1" as="geometry">
            <mxPoint as="offset" />
          </mxGeometry>
        </mxCell>
        <mxCell id="nSn1qpeJ9wSEvml6d4GA-88" style="edgeStyle=orthogonalEdgeStyle;rounded=0;orthogonalLoop=1;jettySize=auto;html=1;entryX=0.5;entryY=0;entryDx=0;entryDy=0;fontSize=8;" edge="1" parent="1" source="nSn1qpeJ9wSEvml6d4GA-57" target="nSn1qpeJ9wSEvml6d4GA-82">
          <mxGeometry relative="1" as="geometry">
            <Array as="points">
              <mxPoint x="890" y="225" />
              <mxPoint x="890" y="290" />
              <mxPoint x="960" y="290" />
            </Array>
          </mxGeometry>
        </mxCell>
        <mxCell id="nSn1qpeJ9wSEvml6d4GA-90" value="Sim" style="edgeLabel;html=1;align=center;verticalAlign=middle;resizable=0;points=[];fontSize=8;" vertex="1" connectable="0" parent="nSn1qpeJ9wSEvml6d4GA-88">
          <mxGeometry x="-0.6517" relative="1" as="geometry">
            <mxPoint as="offset" />
          </mxGeometry>
        </mxCell>
        <mxCell id="nSn1qpeJ9wSEvml6d4GA-57" value="&lt;font style=&quot;font-size: 8px;&quot;&gt;Possui Token&lt;br&gt;de Acesso?&lt;/font&gt;" style="html=1;whiteSpace=wrap;aspect=fixed;shape=isoRectangle;fontSize=11;" vertex="1" parent="1">
          <mxGeometry x="800" y="200" width="83.33" height="50" as="geometry" />
        </mxCell>
        <mxCell id="nSn1qpeJ9wSEvml6d4GA-76" value="" style="edgeStyle=orthogonalEdgeStyle;rounded=0;orthogonalLoop=1;jettySize=auto;html=1;fontSize=8;" edge="1" parent="1" source="nSn1qpeJ9wSEvml6d4GA-68" target="nSn1qpeJ9wSEvml6d4GA-74">
          <mxGeometry relative="1" as="geometry" />
        </mxCell>
        <mxCell id="nSn1qpeJ9wSEvml6d4GA-68" value="get_last_mail.py" style="shape=image;verticalLabelPosition=bottom;labelBackgroundColor=default;verticalAlign=top;aspect=fixed;imageAspect=0;image=data:image/svg+xml,PHN2ZyB4bWxucz0iaHR0cDovL3d3dy53My5vcmcvMjAwMC9zdmciIGhlaWdodD0iNDhweCIgd2lkdGg9IjQ4cHgiIHZpZXdCb3g9IjAgMCA0OCA0OCI+PHBhdGggZD0iTTI0LjA0Nyw1Yy0xLjU1NSwwLjAwNS0yLjYzMywwLjE0Mi0zLjkzNiwwLjM2N2MtMy44NDgsMC42Ny00LjU0OSwyLjA3Ny00LjU0OSw0LjY3VjE0aDl2MkgxNS4yMmgtNC4zNWMtMi42MzYsMC00Ljk0MywxLjI0Mi01LjY3NCw0LjIxOWMtMC44MjYsMy40MTctMC44NjMsNS41NTcsMCw5LjEyNUM1Ljg1MSwzMi4wMDUsNy4yOTQsMzQsOS45MzEsMzRoMy42MzJ2LTUuMTA0YzAtMi45NjYsMi42ODYtNS44OTYsNS43NjQtNS44OTZoNy4yMzZjMi41MjMsMCw1LTEuODYyLDUtNC4zNzd2LTguNTg2YzAtMi40MzktMS43NTktNC4yNjMtNC4yMTgtNC42NzJDMjcuNDA2LDUuMzU5LDI1LjU4OSw0Ljk5NCwyNC4wNDcsNXogTTE5LjA2Myw5YzAuODIxLDAsMS41LDAuNjc3LDEuNSwxLjUwMmMwLDAuODMzLTAuNjc5LDEuNDk4LTEuNSwxLjQ5OGMtMC44MzcsMC0xLjUtMC42NjQtMS41LTEuNDk4QzE3LjU2Myw5LjY4LDE4LjIyNiw5LDE5LjA2Myw5eiIgZmlsbD0iIzAyNzdCRCIvPjxwYXRoIGQ9Ik0yMy4wNzgsNDNjMS41NTUtMC4wMDUsMi42MzMtMC4xNDIsMy45MzYtMC4zNjdjMy44NDgtMC42Nyw0LjU0OS0yLjA3Nyw0LjU0OS00LjY3VjM0aC05di0yaDkuMzQzaDQuMzVjMi42MzYsMCw0Ljk0My0xLjI0Miw1LjY3NC00LjIxOWMwLjgyNi0zLjQxNywwLjg2My01LjU1NywwLTkuMTI1QzQxLjI3NCwxNS45OTUsMzkuODMxLDE0LDM3LjE5NCwxNGgtMy42MzJ2NS4xMDRjMCwyLjk2Ni0yLjY4Niw1Ljg5Ni01Ljc2NCw1Ljg5NmgtNy4yMzZjLTIuNTIzLDAtNSwxLjg2Mi01LDQuMzc3djguNTg2YzAsMi40MzksMS43NTksNC4yNjMsNC4yMTgsNC42NzJDMTkuNzE5LDQyLjY0MSwyMS41MzYsNDMuMDA2LDIzLjA3OCw0M3ogTTI4LjA2MywzOWMtMC44MjEsMC0xLjUtMC42NzctMS41LTEuNTAyYzAtMC44MzMsMC42NzktMS40OTgsMS41LTEuNDk4YzAuODM3LDAsMS41LDAuNjY0LDEuNSwxLjQ5OEMyOS41NjMsMzguMzIsMjguODk5LDM5LDI4LjA2MywzOXoiIGZpbGw9IiNGRkMxMDciLz48L3N2Zz4=;" vertex="1" parent="1">
          <mxGeometry x="817.66" y="542" width="48" height="48" as="geometry" />
        </mxCell>
        <mxCell id="nSn1qpeJ9wSEvml6d4GA-75" value="" style="edgeStyle=orthogonalEdgeStyle;rounded=0;orthogonalLoop=1;jettySize=auto;html=1;fontSize=8;" edge="1" parent="1" source="nSn1qpeJ9wSEvml6d4GA-72" target="nSn1qpeJ9wSEvml6d4GA-68">
          <mxGeometry relative="1" as="geometry" />
        </mxCell>
        <mxCell id="nSn1qpeJ9wSEvml6d4GA-72" value="Acesso a caixa&#xa;de email" style="shape=image;verticalLabelPosition=bottom;labelBackgroundColor=default;verticalAlign=top;aspect=fixed;imageAspect=0;image=data:image/svg+xml,PHN2ZyB4bWxucz0iaHR0cDovL3d3dy53My5vcmcvMjAwMC9zdmciIGhlaWdodD0iNDhweCIgd2lkdGg9IjQ4cHgiIHZpZXdCb3g9IjAgMCA0OCA0OCI+PHBhdGggZD0iTTQzLjI1NSwyMy41NDdsLTYuODEtMy45Njd2MTEuNTk0SDQ0di02LjMzMUM0NCwyNC4zMDksNDMuNzE2LDIzLjgxNiw0My4yNTUsMjMuNTQ3eiIgZmlsbD0iIzEwMzI2MiIvPjxwYXRoIGQ9Ik0xMywxMGgxMHY5SDEzVjEweiIgZmlsbD0iIzAwODRkNyIvPjxwYXRoIGQ9Ik0yMywxMGgxMHY5SDIzVjEweiIgZmlsbD0iIzMzYWZlYyIvPjxwYXRoIGQ9Ik0zMywxMGgxMHY5SDMzVjEweiIgZmlsbD0iIzU0ZGFmZiIvPjxwYXRoIGQ9Ik0yMywxOWgxMHY5SDIzVjE5eiIgZmlsbD0iIzAyN2FkNCIvPjxwYXRoIGQ9Ik0yMywyOGgxMHY5SDIzVjI4eiIgZmlsbD0iIzA1NTNhNCIvPjxwYXRoIGQ9Ik0zMywxOWgxMHY5SDMzVjE5eiIgZmlsbD0iIzI1YTJlNSIvPjxwYXRoIGQ9Ik0zMywyOGgxMHY5SDMzVjI4eiIgZmlsbD0iIzAyNjJiOCIvPjxwb2x5Z29uIG9wYWNpdHk9Ii4wMTkiIHBvaW50cz0iMTMsMzcgNDMsMzcgNDMsMjQuMjM4IDI4Ljk5LDMyLjIzOCAxMywyNC4yMzgiLz48cG9seWdvbiBvcGFjaXR5PSIuMDM4IiBwb2ludHM9IjEzLDM3IDQzLDM3IDQzLDI0LjQ3NiAyOC45OSwzMi40NzYgMTMsMjQuNDc2Ii8+PHBvbHlnb24gb3BhY2l0eT0iLjA1NyIgcG9pbnRzPSIxMywzNyA0MywzNyA0MywyNC43MTQgMjguOTksMzIuNzE0IDEzLDI0LjcxNCIvPjxwb2x5Z29uIG9wYWNpdHk9Ii4wNzYiIHBvaW50cz0iMTMsMzcgNDMsMzcgNDMsMjQuOTUyIDI4Ljk5LDMyLjk1MiAxMywyNC45NTIiLz48cG9seWdvbiBvcGFjaXR5PSIuMDk1IiBwb2ludHM9IjEzLDM3IDQzLDM3IDQzLDI1LjE5IDI4Ljk5LDMzLjE5IDEzLDI1LjE5Ii8+PHBvbHlnb24gb3BhY2l0eT0iLjExNCIgcG9pbnRzPSIxMywzNyA0MywzNyA0MywyNS40MjkgMjguOTksMzMuNDI5IDEzLDI1LjQyOSIvPjxwb2x5Z29uIG9wYWNpdHk9Ii4xMzMiIHBvaW50cz0iMTMsMzcgNDMsMzcgNDMsMjUuNjY3IDI4Ljk5LDMzLjY2NyAxMywyNS42NjciLz48cG9seWdvbiBvcGFjaXR5PSIuMTUyIiBwb2ludHM9IjEzLDM3IDQzLDM3IDQzLDI1LjkwNSAyOC45OSwzMy45MDUgMTMsMjUuOTA1Ii8+PHBvbHlnb24gb3BhY2l0eT0iLjE3MSIgcG9pbnRzPSIxMywzNyA0MywzNyA0MywyNi4xNDMgMjguOTksMzQuMTQzIDEzLDI2LjE0MyIvPjxwb2x5Z29uIG9wYWNpdHk9Ii4xOTEiIHBvaW50cz0iMTMsMzcgNDMsMzcgNDMsMjYuMzgxIDI4Ljk5LDM0LjM4MSAxMywyNi4zODEiLz48cG9seWdvbiBvcGFjaXR5PSIuMjA5IiBwb2ludHM9IjEzLDM3IDQzLDM3IDQzLDI2LjYxOSAyOC45OSwzNC42MTkgMTMsMjYuNjE5Ii8+PHBvbHlnb24gb3BhY2l0eT0iLjIyOSIgcG9pbnRzPSIxMywzNyA0MywzNyA0MywyNi44NTcgMjguOTksMzQuODU3IDEzLDI2Ljg1NyIvPjxwb2x5Z29uIG9wYWNpdHk9Ii4yNDgiIHBvaW50cz0iMTMsMzcgNDMsMzcgNDMsMjcuMDk1IDI4Ljk5LDM1LjA5NSAxMywyNy4wOTUiLz48cG9seWdvbiBvcGFjaXR5PSIuMjY3IiBwb2ludHM9IjEzLDM3IDQzLDM3IDQzLDI3LjMzMyAyOC45OSwzNS4zMzMgMTMsMjcuMzMzIi8+PHBvbHlnb24gb3BhY2l0eT0iLjI4NiIgcG9pbnRzPSIxMywzNyA0MywzNyA0MywyNy41NzEgMjguOTksMzUuNTcxIDEzLDI3LjU3MSIvPjxwb2x5Z29uIG9wYWNpdHk9Ii4zMDUiIHBvaW50cz0iMTMsMzcgNDMsMzcgNDMsMjcuODEgMjguOTksMzUuODEgMTMsMjcuODEiLz48cG9seWdvbiBvcGFjaXR5PSIuMzI0IiBwb2ludHM9IjEzLDM3IDQzLDM3IDQzLDI4LjA0OCAyOC45OSwzNi4wNDggMTMsMjguMDQ4Ii8+PHBvbHlnb24gb3BhY2l0eT0iLjM0MyIgcG9pbnRzPSIxMywzNyA0MywzNyA0MywyOC4yODYgMjguOTksMzYuMjg2IDEzLDI4LjI4NiIvPjxwb2x5Z29uIG9wYWNpdHk9Ii4zNjIiIHBvaW50cz0iMTMsMzcgNDMsMzcgNDMsMjguNTI0IDI4Ljk5LDM2LjUyNCAxMywyOC41MjQiLz48cG9seWdvbiBvcGFjaXR5PSIuMzgxIiBwb2ludHM9IjEzLDM3IDQzLDM3IDQzLDI4Ljc2MiAyOC45OSwzNi43NjIgMTMsMjguNzYyIi8+PHBvbHlnb24gb3BhY2l0eT0iLjQiIHBvaW50cz0iMTMsMzcgNDMsMzcgNDMsMjkgMjguOTksMzcgMTMsMjkiLz48bGluZWFyR3JhZGllbnQgZ3JhZGllbnRVbml0cz0idXNlclNwYWNlT25Vc2UiIHkyPSIzNi4wMjQiIHkxPSIyNC41NTciIHgyPSIzMi4yODYiIHgxPSIzOC45MjUiIGlkPSJRZjcwMTVSb3NZZV9IcGpLZUcwUVRhIj48c3RvcCBzdG9wLWNvbG9yPSIjMzFhYmVjIiBvZmZzZXQ9IjAiLz48c3RvcCBzdG9wLWNvbG9yPSIjMTU4MmQ1IiBvZmZzZXQ9IjEiLz48L2xpbmVhckdyYWRpZW50PjxwYXRoIGQ9Ik0xNS40NDEsNDJoMjYuNTYzYzEuMTA0LDAsMS45OTktMC44ODksMi0xLjk5NEM0NC4wMDcsMzUuNDg1LDQ0LDI0Ljg0Myw0NCwyNC44NDMmIzk7cy0wLjAwNywwLjIyMi0xLjc1MSwxLjIxMlMxNC43NDQsNDEuNTY2LDE0Ljc0NCw0MS41NjZTMTQuOTc4LDQyLDE1LjQ0MSw0MnoiIGZpbGw9InVybCgjUWY3MDE1Um9zWWVfSHBqS2VHMFFUYSkiLz48bGluZWFyR3JhZGllbnQgZ3JhZGllbnRVbml0cz0idXNlclNwYWNlT25Vc2UiIHkyPSI5LjA3NCIgeTE9IjYuOTkyIiB4Mj0iNDEuMjg1IiB4MT0iMTMuNjY1IiBpZD0iUWY3MDE1Um9zWWVfSHBqS2VHMFFUYiI+PHN0b3Agc3RvcC1jb2xvcj0iIzA3NmRiNCIgb2Zmc2V0PSIuMDQyIi8+PHN0b3Agc3RvcC1jb2xvcj0iIzA0NjFhZiIgb2Zmc2V0PSIuODUiLz48L2xpbmVhckdyYWRpZW50PjxwYXRoIGQ9Ik00MywxMEgxM1Y4YzAtMS4xMDUsMC44OTUtMiwyLTJoMjZjMS4xMDUsMCwyLDAuODk1LDIsMlYxMHoiIGZpbGw9InVybCgjUWY3MDE1Um9zWWVfSHBqS2VHMFFUYikiLz48bGluZWFyR3JhZGllbnQgZ3JhZGllbnRVbml0cz0idXNlclNwYWNlT25Vc2UiIHkyPSI0MS4xIiB5MT0iMzMuMjE4IiB4Mj0iMjMuNjM4IiB4MT0iMjguMTUzIiBpZD0iUWY3MDE1Um9zWWVfSHBqS2VHMFFUYyI+PHN0b3Agc3RvcC1jb2xvcj0iIzMzYWNlZSIgb2Zmc2V0PSIwIi8+PHN0b3Agc3RvcC1jb2xvcj0iIzFiOGVkZiIgb2Zmc2V0PSIxIi8+PC9saW5lYXJHcmFkaWVudD48cGF0aCBkPSJNMTMsMjV2MTVjMCwxLjEwNSwwLjg5NSwyLDIsMmgxNWgxMi4wMDRjMC40NjIsMCwwLjg4My0wLjE2MiwxLjIyMS0wLjQyNUwxMywyNXoiIGZpbGw9InVybCgjUWY3MDE1Um9zWWVfSHBqS2VHMFFUYykiLz48cGF0aCBvcGFjaXR5PSIuMDUiIGQ9Ik0yMS4zMTksMTNIMTN2MjRoOC4zMTlDMjMuMzUyLDM3LDI1LDM1LjM1MiwyNSwzMy4zMTlWMTYuNjgxQzI1LDE0LjY0OCwyMy4zNTIsMTMsMjEuMzE5LDEzeiIvPjxwYXRoIG9wYWNpdHk9Ii4wNyIgZD0iTTIxLjIxMywzNkgxM1YxMy4zMzNoOC4yMTNjMS43MjQsMCwzLjEyMSwxLjM5NywzLjEyMSwzLjEyMXYxNi40MjUmIzk7QzI0LjMzMywzNC42MDMsMjIuOTM2LDM2LDIxLjIxMywzNnoiLz48cGF0aCBvcGFjaXR5PSIuMDkiIGQ9Ik0yMS4xMDYsMzVIMTNWMTMuNjY3aDguMTA2YzEuNDE0LDAsMi41NiwxLjE0NiwyLjU2LDIuNTZWMzIuNDRDMjMuNjY3LDMzLjg1NCwyMi41MiwzNSwyMS4xMDYsMzV6Ii8+PGxpbmVhckdyYWRpZW50IGdyYWRpZW50VW5pdHM9InVzZXJTcGFjZU9uVXNlIiB5Mj0iMzMuNDEiIHkxPSIxNC41MyIgeDI9IjIyLjQxIiB4MT0iMy41MyIgaWQ9IlFmNzAxNVJvc1llX0hwaktlRzBRVGQiPjxzdG9wIHN0b3AtY29sb3I9IiMxNzg0ZDgiIG9mZnNldD0iMCIvPjxzdG9wIHN0b3AtY29sb3I9IiMwODY0YzUiIG9mZnNldD0iMSIvPjwvbGluZWFyR3JhZGllbnQ+PHBhdGggZD0iTTIxLDM0SDVjLTEuMTA1LDAtMi0wLjg5NS0yLTJWMTZjMC0xLjEwNSwwLjg5NS0yLDItMmgxNmMxLjEwNSwwLDIsMC44OTUsMiwydjE2JiM5O0MyMywzMy4xMDUsMjIuMTA1LDM0LDIxLDM0eiIgZmlsbD0idXJsKCNRZjcwMTVSb3NZZV9IcGpLZUcwUVRkKSIvPjxwYXRoIGQ9Ik0xMywxOC42OTFjLTMuMTExLDAtNC45ODUsMi4zNzctNC45ODUsNS4zMDlTOS44ODIsMjkuMzA5LDEzLDI5LjMwOSYjOTtjMy4xMTksMCw0Ljk4NS0yLjM3Nyw0Ljk4NS01LjMwOEMxNy45ODUsMjEuMDY4LDE2LjExMSwxOC42OTEsMTMsMTguNjkxeiBNMTMsMjcuNTE3Yy0xLjc2NSwwLTIuODItMS41NzQtMi44Mi0zLjUxNiYjOTtzMS4wNi0zLjUxNiwyLjgyLTMuNTE2czIuODIxLDEuNTc1LDIuODIxLDMuNTE2UzE0Ljc2NCwyNy41MTcsMTMsMjcuNTE3eiIgZmlsbD0iI2ZmZiIvPjwvc3ZnPg==;" vertex="1" parent="1">
          <mxGeometry x="817.6600000000001" y="430" width="48" height="48" as="geometry" />
        </mxCell>
        <mxCell id="nSn1qpeJ9wSEvml6d4GA-73" value="get_account_acess.py" style="shape=image;verticalLabelPosition=bottom;labelBackgroundColor=default;verticalAlign=top;aspect=fixed;imageAspect=0;image=data:image/svg+xml,PHN2ZyB4bWxucz0iaHR0cDovL3d3dy53My5vcmcvMjAwMC9zdmciIGhlaWdodD0iNDhweCIgd2lkdGg9IjQ4cHgiIHZpZXdCb3g9IjAgMCA0OCA0OCI+PHBhdGggZD0iTTI0LjA0Nyw1Yy0xLjU1NSwwLjAwNS0yLjYzMywwLjE0Mi0zLjkzNiwwLjM2N2MtMy44NDgsMC42Ny00LjU0OSwyLjA3Ny00LjU0OSw0LjY3VjE0aDl2MkgxNS4yMmgtNC4zNWMtMi42MzYsMC00Ljk0MywxLjI0Mi01LjY3NCw0LjIxOWMtMC44MjYsMy40MTctMC44NjMsNS41NTcsMCw5LjEyNUM1Ljg1MSwzMi4wMDUsNy4yOTQsMzQsOS45MzEsMzRoMy42MzJ2LTUuMTA0YzAtMi45NjYsMi42ODYtNS44OTYsNS43NjQtNS44OTZoNy4yMzZjMi41MjMsMCw1LTEuODYyLDUtNC4zNzd2LTguNTg2YzAtMi40MzktMS43NTktNC4yNjMtNC4yMTgtNC42NzJDMjcuNDA2LDUuMzU5LDI1LjU4OSw0Ljk5NCwyNC4wNDcsNXogTTE5LjA2Myw5YzAuODIxLDAsMS41LDAuNjc3LDEuNSwxLjUwMmMwLDAuODMzLTAuNjc5LDEuNDk4LTEuNSwxLjQ5OGMtMC44MzcsMC0xLjUtMC42NjQtMS41LTEuNDk4QzE3LjU2Myw5LjY4LDE4LjIyNiw5LDE5LjA2Myw5eiIgZmlsbD0iIzAyNzdCRCIvPjxwYXRoIGQ9Ik0yMy4wNzgsNDNjMS41NTUtMC4wMDUsMi42MzMtMC4xNDIsMy45MzYtMC4zNjdjMy44NDgtMC42Nyw0LjU0OS0yLjA3Nyw0LjU0OS00LjY3VjM0aC05di0yaDkuMzQzaDQuMzVjMi42MzYsMCw0Ljk0My0xLjI0Miw1LjY3NC00LjIxOWMwLjgyNi0zLjQxNywwLjg2My01LjU1NywwLTkuMTI1QzQxLjI3NCwxNS45OTUsMzkuODMxLDE0LDM3LjE5NCwxNGgtMy42MzJ2NS4xMDRjMCwyLjk2Ni0yLjY4Niw1Ljg5Ni01Ljc2NCw1Ljg5NmgtNy4yMzZjLTIuNTIzLDAtNSwxLjg2Mi01LDQuMzc3djguNTg2YzAsMi40MzksMS43NTksNC4yNjMsNC4yMTgsNC42NzJDMTkuNzE5LDQyLjY0MSwyMS41MzYsNDMuMDA2LDIzLjA3OCw0M3ogTTI4LjA2MywzOWMtMC44MjEsMC0xLjUtMC42NzctMS41LTEuNTAyYzAtMC44MzMsMC42NzktMS40OTgsMS41LTEuNDk4YzAuODM3LDAsMS41LDAuNjY0LDEuNSwxLjQ5OEMyOS41NjMsMzguMzIsMjguODk5LDM5LDI4LjA2MywzOXoiIGZpbGw9IiNGRkMxMDciLz48L3N2Zz4=;" vertex="1" parent="1">
          <mxGeometry x="817.66" y="318" width="48" height="48" as="geometry" />
        </mxCell>
        <mxCell id="nSn1qpeJ9wSEvml6d4GA-79" value="" style="edgeStyle=orthogonalEdgeStyle;rounded=0;orthogonalLoop=1;jettySize=auto;html=1;fontSize=8;" edge="1" parent="1" source="nSn1qpeJ9wSEvml6d4GA-74" target="nSn1qpeJ9wSEvml6d4GA-78">
          <mxGeometry relative="1" as="geometry">
            <Array as="points">
              <mxPoint x="1030" y="566" />
              <mxPoint x="1030" y="566" />
            </Array>
          </mxGeometry>
        </mxCell>
        <mxCell id="nSn1qpeJ9wSEvml6d4GA-80" value="Sim" style="edgeLabel;html=1;align=center;verticalAlign=middle;resizable=0;points=[];fontSize=8;" vertex="1" connectable="0" parent="nSn1qpeJ9wSEvml6d4GA-79">
          <mxGeometry x="-0.2356" y="2" relative="1" as="geometry">
            <mxPoint as="offset" />
          </mxGeometry>
        </mxCell>
        <mxCell id="nSn1qpeJ9wSEvml6d4GA-84" value="" style="edgeStyle=orthogonalEdgeStyle;rounded=0;orthogonalLoop=1;jettySize=auto;html=1;fontSize=8;" edge="1" parent="1" source="nSn1qpeJ9wSEvml6d4GA-74" target="nSn1qpeJ9wSEvml6d4GA-81">
          <mxGeometry relative="1" as="geometry" />
        </mxCell>
        <mxCell id="nSn1qpeJ9wSEvml6d4GA-85" value="Sim" style="edgeLabel;html=1;align=center;verticalAlign=middle;resizable=0;points=[];fontSize=8;" vertex="1" connectable="0" parent="nSn1qpeJ9wSEvml6d4GA-84">
          <mxGeometry x="-0.2154" relative="1" as="geometry">
            <mxPoint as="offset" />
          </mxGeometry>
        </mxCell>
        <mxCell id="nSn1qpeJ9wSEvml6d4GA-98" style="edgeStyle=orthogonalEdgeStyle;rounded=0;orthogonalLoop=1;jettySize=auto;html=1;fontSize=8;" edge="1" parent="1" source="nSn1qpeJ9wSEvml6d4GA-74">
          <mxGeometry relative="1" as="geometry">
            <mxPoint x="842" y="610" as="targetPoint" />
            <Array as="points">
              <mxPoint x="960" y="630" />
              <mxPoint x="842" y="630" />
            </Array>
          </mxGeometry>
        </mxCell>
        <mxCell id="nSn1qpeJ9wSEvml6d4GA-99" value="Não" style="edgeLabel;html=1;align=center;verticalAlign=middle;resizable=0;points=[];fontSize=8;" vertex="1" connectable="0" parent="nSn1qpeJ9wSEvml6d4GA-98">
          <mxGeometry x="-0.8854" y="1" relative="1" as="geometry">
            <mxPoint as="offset" />
          </mxGeometry>
        </mxCell>
        <mxCell id="nSn1qpeJ9wSEvml6d4GA-74" value="&lt;span style=&quot;font-size: 8px;&quot;&gt;Novo email&lt;br&gt;suspeito?&lt;br&gt;&lt;/span&gt;" style="html=1;whiteSpace=wrap;aspect=fixed;shape=isoRectangle;fontSize=11;" vertex="1" parent="1">
          <mxGeometry x="918.3399999999999" y="541" width="83.33" height="50" as="geometry" />
        </mxCell>
        <mxCell id="nSn1qpeJ9wSEvml6d4GA-86" value="" style="edgeStyle=orthogonalEdgeStyle;rounded=0;orthogonalLoop=1;jettySize=auto;html=1;fontSize=8;" edge="1" parent="1" source="nSn1qpeJ9wSEvml6d4GA-78" target="nSn1qpeJ9wSEvml6d4GA-83">
          <mxGeometry relative="1" as="geometry" />
        </mxCell>
        <mxCell id="nSn1qpeJ9wSEvml6d4GA-78" value="auth_request.py" style="shape=image;verticalLabelPosition=bottom;labelBackgroundColor=default;verticalAlign=top;aspect=fixed;imageAspect=0;image=data:image/svg+xml,PHN2ZyB4bWxucz0iaHR0cDovL3d3dy53My5vcmcvMjAwMC9zdmciIGhlaWdodD0iNDhweCIgd2lkdGg9IjQ4cHgiIHZpZXdCb3g9IjAgMCA0OCA0OCI+PHBhdGggZD0iTTI0LjA0Nyw1Yy0xLjU1NSwwLjAwNS0yLjYzMywwLjE0Mi0zLjkzNiwwLjM2N2MtMy44NDgsMC42Ny00LjU0OSwyLjA3Ny00LjU0OSw0LjY3VjE0aDl2MkgxNS4yMmgtNC4zNWMtMi42MzYsMC00Ljk0MywxLjI0Mi01LjY3NCw0LjIxOWMtMC44MjYsMy40MTctMC44NjMsNS41NTcsMCw5LjEyNUM1Ljg1MSwzMi4wMDUsNy4yOTQsMzQsOS45MzEsMzRoMy42MzJ2LTUuMTA0YzAtMi45NjYsMi42ODYtNS44OTYsNS43NjQtNS44OTZoNy4yMzZjMi41MjMsMCw1LTEuODYyLDUtNC4zNzd2LTguNTg2YzAtMi40MzktMS43NTktNC4yNjMtNC4yMTgtNC42NzJDMjcuNDA2LDUuMzU5LDI1LjU4OSw0Ljk5NCwyNC4wNDcsNXogTTE5LjA2Myw5YzAuODIxLDAsMS41LDAuNjc3LDEuNSwxLjUwMmMwLDAuODMzLTAuNjc5LDEuNDk4LTEuNSwxLjQ5OGMtMC44MzcsMC0xLjUtMC42NjQtMS41LTEuNDk4QzE3LjU2Myw5LjY4LDE4LjIyNiw5LDE5LjA2Myw5eiIgZmlsbD0iIzAyNzdCRCIvPjxwYXRoIGQ9Ik0yMy4wNzgsNDNjMS41NTUtMC4wMDUsMi42MzMtMC4xNDIsMy45MzYtMC4zNjdjMy44NDgtMC42Nyw0LjU0OS0yLjA3Nyw0LjU0OS00LjY3VjM0aC05di0yaDkuMzQzaDQuMzVjMi42MzYsMCw0Ljk0My0xLjI0Miw1LjY3NC00LjIxOWMwLjgyNi0zLjQxNywwLjg2My01LjU1NywwLTkuMTI1QzQxLjI3NCwxNS45OTUsMzkuODMxLDE0LDM3LjE5NCwxNGgtMy42MzJ2NS4xMDRjMCwyLjk2Ni0yLjY4Niw1Ljg5Ni01Ljc2NCw1Ljg5NmgtNy4yMzZjLTIuNTIzLDAtNSwxLjg2Mi01LDQuMzc3djguNTg2YzAsMi40MzksMS43NTksNC4yNjMsNC4yMTgsNC42NzJDMTkuNzE5LDQyLjY0MSwyMS41MzYsNDMuMDA2LDIzLjA3OCw0M3ogTTI4LjA2MywzOWMtMC44MjEsMC0xLjUtMC42NzctMS41LTEuNTAyYzAtMC44MzMsMC42NzktMS40OTgsMS41LTEuNDk4YzAuODM3LDAsMS41LDAuNjY0LDEuNSwxLjQ5OEMyOS41NjMsMzguMzIsMjguODk5LDM5LDI4LjA2MywzOXoiIGZpbGw9IiNGRkMxMDciLz48L3N2Zz4=;" vertex="1" parent="1">
          <mxGeometry x="1050" y="542" width="48" height="48" as="geometry" />
        </mxCell>
        <mxCell id="nSn1qpeJ9wSEvml6d4GA-87" value="" style="edgeStyle=orthogonalEdgeStyle;rounded=0;orthogonalLoop=1;jettySize=auto;html=1;fontSize=8;" edge="1" parent="1" source="nSn1qpeJ9wSEvml6d4GA-81" target="nSn1qpeJ9wSEvml6d4GA-83">
          <mxGeometry relative="1" as="geometry" />
        </mxCell>
        <mxCell id="nSn1qpeJ9wSEvml6d4GA-81" value="format_mail.py" style="shape=image;verticalLabelPosition=bottom;labelBackgroundColor=default;verticalAlign=top;aspect=fixed;imageAspect=0;image=data:image/svg+xml,PHN2ZyB4bWxucz0iaHR0cDovL3d3dy53My5vcmcvMjAwMC9zdmciIGhlaWdodD0iNDhweCIgd2lkdGg9IjQ4cHgiIHZpZXdCb3g9IjAgMCA0OCA0OCI+PHBhdGggZD0iTTI0LjA0Nyw1Yy0xLjU1NSwwLjAwNS0yLjYzMywwLjE0Mi0zLjkzNiwwLjM2N2MtMy44NDgsMC42Ny00LjU0OSwyLjA3Ny00LjU0OSw0LjY3VjE0aDl2MkgxNS4yMmgtNC4zNWMtMi42MzYsMC00Ljk0MywxLjI0Mi01LjY3NCw0LjIxOWMtMC44MjYsMy40MTctMC44NjMsNS41NTcsMCw5LjEyNUM1Ljg1MSwzMi4wMDUsNy4yOTQsMzQsOS45MzEsMzRoMy42MzJ2LTUuMTA0YzAtMi45NjYsMi42ODYtNS44OTYsNS43NjQtNS44OTZoNy4yMzZjMi41MjMsMCw1LTEuODYyLDUtNC4zNzd2LTguNTg2YzAtMi40MzktMS43NTktNC4yNjMtNC4yMTgtNC42NzJDMjcuNDA2LDUuMzU5LDI1LjU4OSw0Ljk5NCwyNC4wNDcsNXogTTE5LjA2Myw5YzAuODIxLDAsMS41LDAuNjc3LDEuNSwxLjUwMmMwLDAuODMzLTAuNjc5LDEuNDk4LTEuNSwxLjQ5OGMtMC44MzcsMC0xLjUtMC42NjQtMS41LTEuNDk4QzE3LjU2Myw5LjY4LDE4LjIyNiw5LDE5LjA2Myw5eiIgZmlsbD0iIzAyNzdCRCIvPjxwYXRoIGQ9Ik0yMy4wNzgsNDNjMS41NTUtMC4wMDUsMi42MzMtMC4xNDIsMy45MzYtMC4zNjdjMy44NDgtMC42Nyw0LjU0OS0yLjA3Nyw0LjU0OS00LjY3VjM0aC05di0yaDkuMzQzaDQuMzVjMi42MzYsMCw0Ljk0My0xLjI0Miw1LjY3NC00LjIxOWMwLjgyNi0zLjQxNywwLjg2My01LjU1NywwLTkuMTI1QzQxLjI3NCwxNS45OTUsMzkuODMxLDE0LDM3LjE5NCwxNGgtMy42MzJ2NS4xMDRjMCwyLjk2Ni0yLjY4Niw1Ljg5Ni01Ljc2NCw1Ljg5NmgtNy4yMzZjLTIuNTIzLDAtNSwxLjg2Mi01LDQuMzc3djguNTg2YzAsMi40MzksMS43NTksNC4yNjMsNC4yMTgsNC42NzJDMTkuNzE5LDQyLjY0MSwyMS41MzYsNDMuMDA2LDIzLjA3OCw0M3ogTTI4LjA2MywzOWMtMC44MjEsMC0xLjUtMC42NzctMS41LTEuNTAyYzAtMC44MzMsMC42NzktMS40OTgsMS41LTEuNDk4YzAuODM3LDAsMS41LDAuNjY0LDEuNSwxLjQ5OEMyOS41NjMsMzguMzIsMjguODk5LDM5LDI4LjA2MywzOXoiIGZpbGw9IiNGRkMxMDciLz48L3N2Zz4=;" vertex="1" parent="1">
          <mxGeometry x="936" y="440" width="48" height="48" as="geometry" />
        </mxCell>
        <mxCell id="nSn1qpeJ9wSEvml6d4GA-92" style="edgeStyle=orthogonalEdgeStyle;rounded=0;orthogonalLoop=1;jettySize=auto;html=1;exitX=1;exitY=0.5;exitDx=0;exitDy=0;fontSize=8;entryX=0.5;entryY=0;entryDx=0;entryDy=0;" edge="1" parent="1" source="nSn1qpeJ9wSEvml6d4GA-82" target="nSn1qpeJ9wSEvml6d4GA-83">
          <mxGeometry relative="1" as="geometry">
            <mxPoint x="1080" y="342.1428571428571" as="targetPoint" />
          </mxGeometry>
        </mxCell>
        <mxCell id="nSn1qpeJ9wSEvml6d4GA-94" style="edgeStyle=orthogonalEdgeStyle;rounded=0;orthogonalLoop=1;jettySize=auto;html=1;entryX=1;entryY=0.5;entryDx=0;entryDy=0;fontSize=8;" edge="1" parent="1" target="nSn1qpeJ9wSEvml6d4GA-78">
          <mxGeometry relative="1" as="geometry">
            <mxPoint x="984" y="320" as="sourcePoint" />
            <Array as="points">
              <mxPoint x="984" y="320" />
              <mxPoint x="1118" y="320" />
              <mxPoint x="1118" y="566" />
            </Array>
          </mxGeometry>
        </mxCell>
        <mxCell id="nSn1qpeJ9wSEvml6d4GA-82" value="read_json.py" style="shape=image;verticalLabelPosition=bottom;labelBackgroundColor=default;verticalAlign=top;aspect=fixed;imageAspect=0;image=data:image/svg+xml,PHN2ZyB4bWxucz0iaHR0cDovL3d3dy53My5vcmcvMjAwMC9zdmciIGhlaWdodD0iNDhweCIgd2lkdGg9IjQ4cHgiIHZpZXdCb3g9IjAgMCA0OCA0OCI+PHBhdGggZD0iTTI0LjA0Nyw1Yy0xLjU1NSwwLjAwNS0yLjYzMywwLjE0Mi0zLjkzNiwwLjM2N2MtMy44NDgsMC42Ny00LjU0OSwyLjA3Ny00LjU0OSw0LjY3VjE0aDl2MkgxNS4yMmgtNC4zNWMtMi42MzYsMC00Ljk0MywxLjI0Mi01LjY3NCw0LjIxOWMtMC44MjYsMy40MTctMC44NjMsNS41NTcsMCw5LjEyNUM1Ljg1MSwzMi4wMDUsNy4yOTQsMzQsOS45MzEsMzRoMy42MzJ2LTUuMTA0YzAtMi45NjYsMi42ODYtNS44OTYsNS43NjQtNS44OTZoNy4yMzZjMi41MjMsMCw1LTEuODYyLDUtNC4zNzd2LTguNTg2YzAtMi40MzktMS43NTktNC4yNjMtNC4yMTgtNC42NzJDMjcuNDA2LDUuMzU5LDI1LjU4OSw0Ljk5NCwyNC4wNDcsNXogTTE5LjA2Myw5YzAuODIxLDAsMS41LDAuNjc3LDEuNSwxLjUwMmMwLDAuODMzLTAuNjc5LDEuNDk4LTEuNSwxLjQ5OGMtMC44MzcsMC0xLjUtMC42NjQtMS41LTEuNDk4QzE3LjU2Myw5LjY4LDE4LjIyNiw5LDE5LjA2Myw5eiIgZmlsbD0iIzAyNzdCRCIvPjxwYXRoIGQ9Ik0yMy4wNzgsNDNjMS41NTUtMC4wMDUsMi42MzMtMC4xNDIsMy45MzYtMC4zNjdjMy44NDgtMC42Nyw0LjU0OS0yLjA3Nyw0LjU0OS00LjY3VjM0aC05di0yaDkuMzQzaDQuMzVjMi42MzYsMCw0Ljk0My0xLjI0Miw1LjY3NC00LjIxOWMwLjgyNi0zLjQxNywwLjg2My01LjU1NywwLTkuMTI1QzQxLjI3NCwxNS45OTUsMzkuODMxLDE0LDM3LjE5NCwxNGgtMy42MzJ2NS4xMDRjMCwyLjk2Ni0yLjY4Niw1Ljg5Ni01Ljc2NCw1Ljg5NmgtNy4yMzZjLTIuNTIzLDAtNSwxLjg2Mi01LDQuMzc3djguNTg2YzAsMi40MzksMS43NTksNC4yNjMsNC4yMTgsNC42NzJDMTkuNzE5LDQyLjY0MSwyMS41MzYsNDMuMDA2LDIzLjA3OCw0M3ogTTI4LjA2MywzOWMtMC44MjEsMC0xLjUtMC42NzctMS41LTEuNTAyYzAtMC44MzMsMC42NzktMS40OTgsMS41LTEuNDk4YzAuODM3LDAsMS41LDAuNjY0LDEuNSwxLjQ5OEMyOS41NjMsMzguMzIsMjguODk5LDM5LDI4LjA2MywzOXoiIGZpbGw9IiNGRkMxMDciLz48L3N2Zz4=;" vertex="1" parent="1">
          <mxGeometry x="936.01" y="318" width="48" height="48" as="geometry" />
        </mxCell>
        <mxCell id="nSn1qpeJ9wSEvml6d4GA-83" value="open_event.py" style="shape=image;verticalLabelPosition=bottom;labelBackgroundColor=default;verticalAlign=top;aspect=fixed;imageAspect=0;image=data:image/svg+xml,PHN2ZyB4bWxucz0iaHR0cDovL3d3dy53My5vcmcvMjAwMC9zdmciIGhlaWdodD0iNDhweCIgd2lkdGg9IjQ4cHgiIHZpZXdCb3g9IjAgMCA0OCA0OCI+PHBhdGggZD0iTTI0LjA0Nyw1Yy0xLjU1NSwwLjAwNS0yLjYzMywwLjE0Mi0zLjkzNiwwLjM2N2MtMy44NDgsMC42Ny00LjU0OSwyLjA3Ny00LjU0OSw0LjY3VjE0aDl2MkgxNS4yMmgtNC4zNWMtMi42MzYsMC00Ljk0MywxLjI0Mi01LjY3NCw0LjIxOWMtMC44MjYsMy40MTctMC44NjMsNS41NTcsMCw5LjEyNUM1Ljg1MSwzMi4wMDUsNy4yOTQsMzQsOS45MzEsMzRoMy42MzJ2LTUuMTA0YzAtMi45NjYsMi42ODYtNS44OTYsNS43NjQtNS44OTZoNy4yMzZjMi41MjMsMCw1LTEuODYyLDUtNC4zNzd2LTguNTg2YzAtMi40MzktMS43NTktNC4yNjMtNC4yMTgtNC42NzJDMjcuNDA2LDUuMzU5LDI1LjU4OSw0Ljk5NCwyNC4wNDcsNXogTTE5LjA2Myw5YzAuODIxLDAsMS41LDAuNjc3LDEuNSwxLjUwMmMwLDAuODMzLTAuNjc5LDEuNDk4LTEuNSwxLjQ5OGMtMC44MzcsMC0xLjUtMC42NjQtMS41LTEuNDk4QzE3LjU2Myw5LjY4LDE4LjIyNiw5LDE5LjA2Myw5eiIgZmlsbD0iIzAyNzdCRCIvPjxwYXRoIGQ9Ik0yMy4wNzgsNDNjMS41NTUtMC4wMDUsMi42MzMtMC4xNDIsMy45MzYtMC4zNjdjMy44NDgtMC42Nyw0LjU0OS0yLjA3Nyw0LjU0OS00LjY3VjM0aC05di0yaDkuMzQzaDQuMzVjMi42MzYsMCw0Ljk0My0xLjI0Miw1LjY3NC00LjIxOWMwLjgyNi0zLjQxNywwLjg2My01LjU1NywwLTkuMTI1QzQxLjI3NCwxNS45OTUsMzkuODMxLDE0LDM3LjE5NCwxNGgtMy42MzJ2NS4xMDRjMCwyLjk2Ni0yLjY4Niw1Ljg5Ni01Ljc2NCw1Ljg5NmgtNy4yMzZjLTIuNTIzLDAtNSwxLjg2Mi01LDQuMzc3djguNTg2YzAsMi40MzksMS43NTksNC4yNjMsNC4yMTgsNC42NzJDMTkuNzE5LDQyLjY0MSwyMS41MzYsNDMuMDA2LDIzLjA3OCw0M3ogTTI4LjA2MywzOWMtMC44MjEsMC0xLjUtMC42NzctMS41LTEuNTAyYzAtMC44MzMsMC42NzktMS40OTgsMS41LTEuNDk4YzAuODM3LDAsMS41LDAuNjY0LDEuNSwxLjQ5OEMyOS41NjMsMzguMzIsMjguODk5LDM5LDI4LjA2MywzOXoiIGZpbGw9IiNGRkMxMDciLz48L3N2Zz4=;" vertex="1" parent="1">
          <mxGeometry x="1050" y="440" width="48" height="48" as="geometry" />
        </mxCell>
        <mxCell id="nSn1qpeJ9wSEvml6d4GA-91" style="edgeStyle=orthogonalEdgeStyle;rounded=0;orthogonalLoop=1;jettySize=auto;html=1;exitX=0.5;exitY=1;exitDx=0;exitDy=0;fontSize=8;" edge="1" parent="1" source="nSn1qpeJ9wSEvml6d4GA-82" target="nSn1qpeJ9wSEvml6d4GA-82">
          <mxGeometry relative="1" as="geometry" />
        </mxCell>
      </root>
    </mxGraphModel>
  </diagram>
</mxfile>
